M48
;Layer_Color=9474304
;FILE_FORMAT=2:5
INCH,LZ
;TYPE=PLATED
T1F00S00C0.01181
T2F00S00C0.01300
T3F00S00C0.03000
T4F00S00C0.03543
T5F00S00C0.13780
%
T01
X04191Y-03308
Y-03258
X0419Y-0321
X0241261Y-03108
X02322Y-03027
X02167Y-0294688
X0216656Y-02907
X01909Y-02919
X0191Y-02998
X01966Y-03028
X01997Y-0312275
X01999Y-03384
X02051Y-03385
X016Y-0307
X01566Y-03031
X01565Y-02878
X01598Y-028464
X01572Y-0266394
X01723Y-02601
X01779Y-02576
X0197317Y-0248739
X02007Y-02458
X02049Y-02448
X0224982Y-02505
X023135Y-025245
X02357Y-02521
X02482Y-0251903
X02458Y-0244
X02429Y-02459
X02543Y-02699
X02583Y-02676
X02623Y-02665
X0155Y-02784
X01409Y-02703
X01338
X0139Y-026175
X01172Y-02973
X010434Y-0288039
X0004Y-01871
Y-01826
Y-01785
X00036Y-01597
X00223Y-00966
X00334
X00375
T02
X0469Y-0291369
Y-0270369
Y-0249369
X0468941Y-0228742
X0469Y-0207369
X0468056Y-019
X047552Y-018948
X0459106Y-0194
X0449479Y-0214127
X04295Y-0215542
X0432908Y-0226942
X043Y-0236054
X0437717Y-0245327
X043Y-0257054
X0437717Y-0266163
X043Y-0278054
X0437717Y-0287163
X043Y-0299054
X0449479Y-0298127
Y-0277127
Y-0256127
X04497Y-02363
X0437717Y-0203542
X04315Y-0190464
X0424303
X0404127Y-0191612
X0387685Y-0190464
X0385Y-01955
X0377286Y-0191
X0371632Y-0190882
X0362Y-01955
X0343811Y-019
X0336511Y-01905
X0333251Y-01955
X0321Y-0192535
X0322272Y-0234411
X0315636Y-02345
X0328907
X0335543
X0342Y-0234569
X0348613
X0354968Y-0234669
X036589Y-0249454
X0365808Y-0253542
Y-0258213
X036589Y-0262982
Y-0267227
X0352Y-0268691
X0337768
X033376Y-02565
X03275
X032154
X0316257Y-025638
X0318421Y-028656
Y-0291477
Y-0295998
X03185Y-03
X0318782Y-030655
X0336Y-0317
X03545Y-03165
X0363968Y-0310469
X0376595Y-02975
X0385595Y-0298435
X0398417Y-0295042
Y-0274042
Y-0253542
X0398417Y-0232042
X0394Y-02145
X0411Y-0222354
X0410479Y-0242813
Y-0263813
Y-0284813
Y-0305813
X0346888Y-0279268
X0341Y-0282042
X0332531Y-028155
X02963Y-0261971
X0291Y-0262
X0276837Y-0263484
X0275Y-0252
X0268Y-0251795
X0277394Y-0243385
X02827Y-02433
X026239Y-0230142
X02424Y-023
X02425Y-02335
X0238451
X0238496Y-0230037
X0234765Y-0229873
X0234581Y-02335
X0230575
X022617
X0222425
X0222395Y-0229032
X022617Y-0228974
X0230575Y-0228895
X0230614Y-0238075
X02345
X0238451
X0242469
X02455Y-0249
X0245836Y-02245
X0241261
X022617Y-0237988
X0222425Y-0238026
X0224982Y-0254357
X0213313Y-02595
X02135Y-0264
X01855Y-02605
X0203Y-02145
X0249Y-0188769
X0287757Y-0190464
X0299706
X0309Y-02345
X02582Y-02763
X02542Y-02762
X0257Y-0287
X025039Y-028986
X02425Y-02895
X0264264Y-0289732
X02465Y-0318
X0216627Y-0299234
X010434Y-03098
X00705
X00585Y-0307443
X0055
X0051315
X004786
X0047713Y-0302763
X0051315
X0055
X00585
Y-0298042
X0055
X0051315Y-0298
X0047713
X0020907Y-0303263
X0008093
X0023828Y-0273618
X0028828Y-0273618
X0033827Y-0273523
X0038827Y-0273523
X0028828Y-02395
X0023827Y-023975
X0025419Y-0230118
X0083Y-0241982
X00955Y-02135
X0098Y-021125
X00955Y-0208536
X007125Y-0188769
X0077Y-0187
X00775Y-01635
Y-01595
Y-0156
X00525Y-0142
Y-0137
Y-0133
Y-0128
Y-01235
X0049Y-01215
Y-01259
Y-01303
Y-01347
Y-01391
Y-01435
X00425Y-011215
X0062Y-01165
Y-00925
Y-00885
Y-0085
X01065
Y-00885
Y-00925
X0106Y-0116
X00935Y-011745
X0137843Y-01175
X0150343Y-0116
X0150842Y-00925
Y-00885
Y-0085
X0143765Y-00435
X0121619Y-00595
X0095778Y-00415
X0079Y-0042526
X0071625Y-00415
X0122119Y-0156
Y-01595
Y-01635
X0121619Y-0187
X0104119Y-018315
X0148119
X0147843Y-017585
X0165961Y-0187
X0166461Y-01635
Y-01595
Y-0156
X0211
Y-01595
Y-01635
X02105Y-0187
X019315Y-018315
X0255Y-0187
X02555Y-01635
Y-01595
Y-0156
X0307567Y-01555
Y-0159
Y-01625
Y-0166
X03025Y-0109754
X0291905Y-0095042
X0292196Y-0091542
Y-0088042
X0291905Y-0084542
X0284335Y-0119506
X028Y-0122
X02395Y-0116
X0227Y-01175
X0194843Y-0116042
X0182343Y-011745
X0195343Y-0092542
Y-0088542
Y-0085042
X024Y-0085
Y-00885
Y-00925
X0255Y-0058
X0225387Y-0042
X0209842Y-00535
X0165956Y-00605
X0315Y-00655
X0335709Y-00845
Y-0088
Y-00915
Y-0095
X03335Y-0124
X03285Y-0119
X0328Y-01285
X0320684Y-0124
X0369175Y-0123
X0372839Y-0118964
X0386Y-0109754
X0380472Y-0095
Y-00915
Y-0088
Y-00845
X04015Y-00795
X0424472Y-00845
Y-0088
Y-00915
Y-0095
X0425Y-0115
X0416839Y-0119
X0414Y-01225
X0408Y-0123
X0416831Y-0141
X0395582Y-01555
Y-0158833
Y-0162167
Y-01655
X0439Y-0166
Y-0162882
Y-01595
Y-015585
X04485Y-0180754
X0461314Y-0138
X0460839Y-01195
X0456331Y-0119539
X04655Y-0109796
X0467972Y-0095
Y-00915
Y-0088
Y-00845
X04475Y-00725
X04345Y-0109796
X0375675Y-01405
X0351709Y-01555
Y-0159
Y-01625
Y-01665
X0359187Y-01815
X0360091Y-00645
X0492667Y-00749
X04915Y-0109754
X0479
X0482654Y-01555
Y-0159
Y-01625
Y-0166
X04885Y-0180494
X0489886Y-0183
X0493114Y-0182
X0303205Y-0030414
X0283984Y-0025346
X02785Y-00255
X02735Y-0025346
X0268814
Y-0019
X02735
X02785
X0283984Y-001907
T03
X001024Y-00875
X003024
T04
X0493576Y-0302982
X0493576Y-0292982
Y-0282982
Y-0272982
X0493576Y-0262982
Y-0252982
X0493576Y-0242982
Y-0232982
Y-0222982
X0493576Y-0212982
X0493576Y-0202982
X0343984Y-032982
X0333984Y-032982
X0323984
X0313984
X0303984
X0293984
X0283984
X0273984
X0251Y-033
X0241
X0231
X0221
X0185916
X0175917
X0165917
X0155917
X028Y-0308042
Y-0298042
Y-0288042
Y-0278042
X01553Y-02446
Y-02346
Y-02246
Y-02146
X01336Y-02316
Y-02416
X0131692Y-033
X0121692
X0111692
X0101692
X0019244Y-0068179
X0019244Y-0058179
X0019244Y-0048179
X0019244Y-0038179
X03335Y-00205
X03435
X03535
X03635
X03735
X03835
X03935
X04035
X04135
X04235
X02025Y-00205
X01925
X01825
X01725
X01625
X01525
X01425
X01325
X01225
X01125
T05
X0492126Y-0330709
X0019685
X0492126Y-0015748
X0019685
M30
