G04*
G04 #@! TF.GenerationSoftware,Altium Limited,Altium Designer,18.1.9 (240)*
G04*
G04 Layer_Color=16711935*
%FSLAX25Y25*%
%MOIN*%
G70*
G01*
G75*
%ADD12C,0.01181*%
%ADD102R,0.07493X0.07493*%
%ADD103C,0.07493*%
%ADD104C,0.06800*%
%ADD106R,0.07493X0.07493*%
%ADD107C,0.14580*%
D12*
X0Y0D02*
X512000D01*
X512000Y-346500D01*
X0D02*
X512000D01*
X0D02*
Y0D01*
D102*
X133600Y-231600D02*
D03*
X155917Y-330000D02*
D03*
X493576Y-302982D02*
D03*
X280000Y-278042D02*
D03*
X221000Y-330000D02*
D03*
X101692D02*
D03*
D103*
X133600Y-241600D02*
D03*
X165917Y-330000D02*
D03*
X175917D02*
D03*
X185916D02*
D03*
X155300Y-234600D02*
D03*
Y-224600D02*
D03*
Y-214600D02*
D03*
X343984Y-329820D02*
D03*
X333984Y-329820D02*
D03*
X323984D02*
D03*
X313984D02*
D03*
X303984D02*
D03*
X293984D02*
D03*
X283984D02*
D03*
X493576Y-292982D02*
D03*
Y-282982D02*
D03*
Y-272982D02*
D03*
X493576Y-262982D02*
D03*
Y-252982D02*
D03*
X493576Y-242982D02*
D03*
Y-232982D02*
D03*
Y-222982D02*
D03*
X493576Y-212982D02*
D03*
X493576Y-202982D02*
D03*
X280000Y-308042D02*
D03*
Y-298042D02*
D03*
Y-288042D02*
D03*
X231000Y-330000D02*
D03*
X241000D02*
D03*
X251000D02*
D03*
X111692D02*
D03*
X121692D02*
D03*
X131692D02*
D03*
X413500Y-20500D02*
D03*
X403500D02*
D03*
X393500D02*
D03*
X383500D02*
D03*
X373500D02*
D03*
X363500D02*
D03*
X353500D02*
D03*
X343500D02*
D03*
X333500D02*
D03*
X192500Y-20500D02*
D03*
X182500D02*
D03*
X172500D02*
D03*
X162500D02*
D03*
X152500D02*
D03*
X142500D02*
D03*
X132500D02*
D03*
X122500D02*
D03*
X112500D02*
D03*
X19244Y-48179D02*
D03*
X19244Y-58179D02*
D03*
X19244Y-68179D02*
D03*
D104*
X10240Y-87500D02*
D03*
X30240D02*
D03*
D106*
X155300Y-244600D02*
D03*
X273984Y-329820D02*
D03*
X423500Y-20500D02*
D03*
X202500Y-20500D02*
D03*
X19244Y-38179D02*
D03*
D107*
X19685Y-15748D02*
D03*
Y-330709D02*
D03*
X492126D02*
D03*
Y-15748D02*
D03*
M02*
