G04*
G04 #@! TF.GenerationSoftware,Altium Limited,Altium Designer,18.1.9 (240)*
G04*
G04 Layer_Color=8421504*
%FSLAX25Y25*%
%MOIN*%
G70*
G01*
G75*
%ADD12C,0.01181*%
%ADD20R,0.04000X0.03150*%
%ADD21R,0.03600X0.03600*%
%ADD22R,0.05000X0.03600*%
%ADD23R,0.03000X0.03500*%
%ADD24R,0.05512X0.02362*%
%ADD25R,0.03600X0.03600*%
%ADD26R,0.03600X0.05000*%
%ADD27R,0.03150X0.04000*%
%ADD28R,0.03500X0.03000*%
%ADD29C,0.03937*%
%ADD30O,0.01102X0.07087*%
%ADD31O,0.07087X0.01102*%
%ADD32R,0.05000X0.06500*%
%ADD33O,0.08268X0.03150*%
%ADD34R,0.08268X0.03150*%
%ADD35O,0.07087X0.02756*%
%ADD36O,0.07087X0.03150*%
%ADD37R,0.07087X0.03150*%
%ADD38R,0.07874X0.07874*%
%ADD39R,0.19685X0.07874*%
%ADD40O,0.11811X0.05118*%
%ADD41R,0.11811X0.05118*%
%ADD42R,0.07874X0.07874*%
%ADD43O,0.13780X0.07874*%
%ADD44O,0.08268X0.02756*%
%ADD45O,0.07480X0.02756*%
%ADD46R,0.13780X0.08661*%
%ADD47R,0.03937X0.08661*%
%ADD48O,0.02756X0.07087*%
%ADD49R,0.03858X0.03661*%
%ADD50R,0.23622X0.25591*%
%ADD51R,0.04724X0.08661*%
%ADD52R,0.03500X0.05000*%
G04:AMPARAMS|DCode=53|XSize=50mil|YSize=35mil|CornerRadius=0mil|HoleSize=0mil|Usage=FLASHONLY|Rotation=90.000|XOffset=0mil|YOffset=0mil|HoleType=Round|Shape=Octagon|*
%AMOCTAGOND53*
4,1,8,0.00875,0.02500,-0.00875,0.02500,-0.01750,0.01625,-0.01750,-0.01625,-0.00875,-0.02500,0.00875,-0.02500,0.01750,-0.01625,0.01750,0.01625,0.00875,0.02500,0.0*
%
%ADD53OCTAGOND53*%

%ADD54O,0.03150X0.08268*%
%ADD55R,0.03150X0.08268*%
%ADD56R,0.03661X0.03858*%
%ADD57O,0.07087X0.02362*%
%ADD58R,0.23000X0.24500*%
%ADD59R,0.06000X0.11000*%
%ADD60R,0.06000X0.11500*%
D12*
X0Y0D02*
X512000D01*
X512000Y-346500D01*
X0D02*
X512000D01*
X0D02*
Y0D01*
D20*
X123750Y-305600D02*
D03*
X131050D02*
D03*
X132100Y-274990D02*
D03*
X124800D02*
D03*
X132100Y-282300D02*
D03*
X124800D02*
D03*
X140900Y-274990D02*
D03*
X148200D02*
D03*
X140900Y-282200D02*
D03*
X148200D02*
D03*
X186050Y-306900D02*
D03*
X178750D02*
D03*
X212568Y-307404D02*
D03*
X205269D02*
D03*
X377213Y-301735D02*
D03*
X369913D02*
D03*
X218882Y-307318D02*
D03*
X226182D02*
D03*
X178750Y-299831D02*
D03*
X186050D02*
D03*
X109050Y-281954D02*
D03*
X116350Y-281954D02*
D03*
X94050Y-281900D02*
D03*
X101350D02*
D03*
X468220Y-185485D02*
D03*
X475520D02*
D03*
X453539Y-114485D02*
D03*
X460839D02*
D03*
X424303Y-185485D02*
D03*
X431603D02*
D03*
X409539Y-114485D02*
D03*
X416839D02*
D03*
X380385Y-185485D02*
D03*
X387685D02*
D03*
X365539Y-114485D02*
D03*
X372839D02*
D03*
X336511Y-185485D02*
D03*
X343811D02*
D03*
X321275Y-114485D02*
D03*
X328575D02*
D03*
X292370Y-185485D02*
D03*
X299670D02*
D03*
X276999Y-114527D02*
D03*
X284299D02*
D03*
D21*
X150800Y-297734D02*
D03*
Y-290234D02*
D03*
X255000Y-175500D02*
D03*
Y-183000D02*
D03*
X239500Y-104500D02*
D03*
Y-112000D02*
D03*
X210500Y-175500D02*
D03*
Y-183000D02*
D03*
X194843Y-104542D02*
D03*
Y-112042D02*
D03*
X165961Y-175500D02*
D03*
Y-183000D02*
D03*
X150343Y-104500D02*
D03*
Y-112000D02*
D03*
X121619Y-175500D02*
D03*
Y-183000D02*
D03*
X106000Y-104500D02*
D03*
Y-112000D02*
D03*
X77000Y-175500D02*
D03*
Y-183000D02*
D03*
X61500Y-104500D02*
D03*
Y-112000D02*
D03*
D22*
X142800Y-293934D02*
D03*
X263000Y-179300D02*
D03*
X247500Y-108300D02*
D03*
X218500Y-179300D02*
D03*
X202842Y-108342D02*
D03*
X173961Y-179300D02*
D03*
X158343Y-108300D02*
D03*
X129619Y-179300D02*
D03*
X114000Y-108300D02*
D03*
X85000Y-179300D02*
D03*
X69500Y-108300D02*
D03*
D23*
X170900Y-284400D02*
D03*
Y-291300D02*
D03*
X359000Y-316900D02*
D03*
Y-310000D02*
D03*
X359873Y-251903D02*
D03*
Y-258803D02*
D03*
X291123Y-248883D02*
D03*
Y-241983D02*
D03*
X204500Y-260400D02*
D03*
Y-253500D02*
D03*
X197317Y-253639D02*
D03*
X197317Y-260539D02*
D03*
D24*
X133000Y-294000D02*
D03*
X123103Y-297740D02*
D03*
Y-290259D02*
D03*
D25*
X178800Y-292200D02*
D03*
X186300D02*
D03*
X444917Y-206856D02*
D03*
X437417D02*
D03*
X405917Y-214542D02*
D03*
X398417D02*
D03*
X444858Y-228229D02*
D03*
X437358D02*
D03*
X405917Y-235542D02*
D03*
X398417D02*
D03*
X444917Y-248856D02*
D03*
X437417D02*
D03*
X405917Y-256542D02*
D03*
X398417D02*
D03*
X444917Y-269856D02*
D03*
X437417D02*
D03*
X405917Y-277542D02*
D03*
X398417D02*
D03*
X444917Y-290856D02*
D03*
X437417D02*
D03*
X405917Y-298542D02*
D03*
X398417D02*
D03*
X468056Y-179500D02*
D03*
X475556D02*
D03*
X453375Y-108500D02*
D03*
X460875D02*
D03*
X424139Y-179500D02*
D03*
X431639D02*
D03*
X409375Y-108500D02*
D03*
X416875D02*
D03*
X380221Y-179500D02*
D03*
X387720D02*
D03*
X365375Y-108500D02*
D03*
X372875D02*
D03*
X336347Y-179500D02*
D03*
X343847D02*
D03*
X321111Y-108500D02*
D03*
X328611D02*
D03*
X292206Y-179500D02*
D03*
X299706D02*
D03*
X276835Y-108542D02*
D03*
X284335D02*
D03*
D26*
X182600Y-284200D02*
D03*
X441117Y-214856D02*
D03*
X402117Y-222542D02*
D03*
X441058Y-236229D02*
D03*
X402117Y-243542D02*
D03*
X441117Y-256856D02*
D03*
X402117Y-264542D02*
D03*
X441117Y-277856D02*
D03*
X402117Y-285542D02*
D03*
X441117Y-298856D02*
D03*
X402117Y-306542D02*
D03*
X471856Y-171500D02*
D03*
X457175Y-100500D02*
D03*
X427939Y-171500D02*
D03*
X413175Y-100500D02*
D03*
X384020Y-171500D02*
D03*
X369175Y-100500D02*
D03*
X340147Y-171500D02*
D03*
X324911Y-100500D02*
D03*
X296006Y-171500D02*
D03*
X280635Y-100542D02*
D03*
D27*
X385595Y-310038D02*
D03*
Y-302738D02*
D03*
X190487Y-260553D02*
D03*
Y-253253D02*
D03*
X203000Y-209650D02*
D03*
Y-202350D02*
D03*
X463556Y-214669D02*
D03*
Y-207369D02*
D03*
X454917Y-207369D02*
D03*
Y-214669D02*
D03*
X424556Y-222354D02*
D03*
Y-215054D02*
D03*
X415917D02*
D03*
Y-222354D02*
D03*
X463496Y-236042D02*
D03*
Y-228742D02*
D03*
X454858D02*
D03*
Y-236042D02*
D03*
X424556Y-243354D02*
D03*
Y-236054D02*
D03*
X415917D02*
D03*
Y-243354D02*
D03*
X463556Y-256669D02*
D03*
Y-249369D02*
D03*
X454917Y-249369D02*
D03*
Y-256669D02*
D03*
X424556Y-264354D02*
D03*
Y-257054D02*
D03*
X415917D02*
D03*
Y-264354D02*
D03*
X463556Y-277669D02*
D03*
Y-270369D02*
D03*
X454917Y-270369D02*
D03*
Y-277669D02*
D03*
X424556Y-285354D02*
D03*
Y-278054D02*
D03*
X415917Y-278054D02*
D03*
Y-285354D02*
D03*
X463556Y-298669D02*
D03*
Y-291369D02*
D03*
X454917Y-291369D02*
D03*
Y-298669D02*
D03*
X424556Y-306354D02*
D03*
Y-299054D02*
D03*
X415917Y-299054D02*
D03*
Y-306354D02*
D03*
X461314Y-170094D02*
D03*
Y-177394D02*
D03*
X483888Y-180754D02*
D03*
Y-173454D02*
D03*
X446632Y-99094D02*
D03*
Y-106394D02*
D03*
X469207Y-109754D02*
D03*
Y-102454D02*
D03*
X417396Y-170094D02*
D03*
Y-177394D02*
D03*
X439971Y-180754D02*
D03*
Y-173454D02*
D03*
X402633Y-99094D02*
D03*
Y-106394D02*
D03*
X425207Y-109754D02*
D03*
Y-102454D02*
D03*
X373478Y-170094D02*
D03*
Y-177394D02*
D03*
X396053Y-180754D02*
D03*
Y-173454D02*
D03*
X358632Y-99094D02*
D03*
Y-106394D02*
D03*
X381207Y-109754D02*
D03*
Y-102454D02*
D03*
X329605Y-170094D02*
D03*
Y-177394D02*
D03*
X352179Y-180754D02*
D03*
Y-173454D02*
D03*
X314369Y-99094D02*
D03*
Y-106394D02*
D03*
X336943Y-109754D02*
D03*
Y-102454D02*
D03*
X285464Y-170094D02*
D03*
X285464Y-177394D02*
D03*
X308038Y-180754D02*
D03*
Y-173454D02*
D03*
X270092Y-99136D02*
D03*
Y-106436D02*
D03*
X292667Y-109796D02*
D03*
Y-102496D02*
D03*
X270000Y-163150D02*
D03*
Y-155850D02*
D03*
Y-179150D02*
D03*
Y-171850D02*
D03*
X249000Y-175850D02*
D03*
Y-183150D02*
D03*
X242500Y-175850D02*
D03*
Y-183150D02*
D03*
X254500Y-92150D02*
D03*
Y-84850D02*
D03*
X254500Y-108150D02*
D03*
Y-100850D02*
D03*
X233500Y-104850D02*
D03*
Y-112150D02*
D03*
X227000Y-104850D02*
D03*
Y-112150D02*
D03*
X225500Y-163150D02*
D03*
Y-155850D02*
D03*
X225500Y-179150D02*
D03*
Y-171850D02*
D03*
X204500Y-175850D02*
D03*
Y-183150D02*
D03*
X198000Y-175850D02*
D03*
Y-183150D02*
D03*
X209842Y-92192D02*
D03*
Y-84892D02*
D03*
X209842Y-108192D02*
D03*
Y-100892D02*
D03*
X188842Y-104892D02*
D03*
Y-112192D02*
D03*
X182343Y-104892D02*
D03*
Y-112192D02*
D03*
X180961Y-163150D02*
D03*
Y-155850D02*
D03*
X180961Y-179150D02*
D03*
Y-171850D02*
D03*
X159961Y-175850D02*
D03*
Y-183150D02*
D03*
X153461Y-175850D02*
D03*
Y-183150D02*
D03*
X165342Y-92150D02*
D03*
Y-84850D02*
D03*
X165342Y-108150D02*
D03*
Y-100850D02*
D03*
X144343Y-104850D02*
D03*
Y-112150D02*
D03*
X137843Y-104850D02*
D03*
Y-112150D02*
D03*
X136619Y-163150D02*
D03*
Y-155850D02*
D03*
X136619Y-179150D02*
D03*
Y-171850D02*
D03*
X115619Y-175850D02*
D03*
Y-183150D02*
D03*
X109119Y-175850D02*
D03*
Y-183150D02*
D03*
X121000Y-92150D02*
D03*
Y-84850D02*
D03*
X121000Y-108150D02*
D03*
Y-100850D02*
D03*
X100000Y-104850D02*
D03*
Y-112150D02*
D03*
X93500Y-104850D02*
D03*
Y-112150D02*
D03*
X92000Y-163150D02*
D03*
Y-155850D02*
D03*
X92000Y-179150D02*
D03*
Y-171850D02*
D03*
X71000Y-175850D02*
D03*
Y-183150D02*
D03*
X64500Y-175850D02*
D03*
Y-183150D02*
D03*
X76500Y-92150D02*
D03*
Y-84850D02*
D03*
X76500Y-108150D02*
D03*
Y-100850D02*
D03*
X55500Y-104850D02*
D03*
Y-112150D02*
D03*
X49000Y-104850D02*
D03*
Y-112150D02*
D03*
D28*
X241400Y-283773D02*
D03*
X234500D02*
D03*
X51875Y-234634D02*
D03*
X44975D02*
D03*
X102339Y-208536D02*
D03*
X109239D02*
D03*
X274950Y-248500D02*
D03*
X268050D02*
D03*
D29*
X15644Y-279614D02*
D03*
X44046Y-281418D02*
D03*
X132119Y-255487D02*
D03*
X134268Y-214503D02*
D03*
D30*
X219736Y-260850D02*
D03*
X221705D02*
D03*
X223673D02*
D03*
X225642D02*
D03*
X227610D02*
D03*
X229579D02*
D03*
X231547D02*
D03*
X233516D02*
D03*
X235484D02*
D03*
X237453D02*
D03*
X239421D02*
D03*
X241390D02*
D03*
X243358D02*
D03*
X245327D02*
D03*
X247295D02*
D03*
X249264D02*
D03*
Y-217150D02*
D03*
X247295D02*
D03*
X245327D02*
D03*
X243358D02*
D03*
X241390D02*
D03*
X239421D02*
D03*
X237453D02*
D03*
X235484D02*
D03*
X233516D02*
D03*
X231547D02*
D03*
X229579D02*
D03*
X227610D02*
D03*
X225642D02*
D03*
X223673D02*
D03*
X221705D02*
D03*
X219736D02*
D03*
D31*
X256350Y-253764D02*
D03*
Y-251795D02*
D03*
Y-249827D02*
D03*
Y-247858D02*
D03*
Y-245890D02*
D03*
Y-243921D02*
D03*
Y-241953D02*
D03*
Y-239984D02*
D03*
Y-238016D02*
D03*
Y-236047D02*
D03*
Y-234079D02*
D03*
Y-232110D02*
D03*
Y-230142D02*
D03*
Y-228173D02*
D03*
Y-226205D02*
D03*
Y-224236D02*
D03*
X212650D02*
D03*
Y-226205D02*
D03*
Y-228173D02*
D03*
Y-230142D02*
D03*
Y-232110D02*
D03*
Y-234079D02*
D03*
Y-236047D02*
D03*
Y-238016D02*
D03*
Y-239984D02*
D03*
Y-241953D02*
D03*
Y-243921D02*
D03*
Y-245890D02*
D03*
Y-247858D02*
D03*
Y-249827D02*
D03*
Y-251795D02*
D03*
Y-253764D02*
D03*
D32*
X360081Y-337500D02*
D03*
X373581D02*
D03*
X360081Y-325805D02*
D03*
X373581D02*
D03*
D33*
X14469Y-303263D02*
D03*
D34*
X31399Y-303263D02*
D03*
D35*
X205216Y-284234D02*
D03*
X205216Y-289234D02*
D03*
Y-294234D02*
D03*
X205216Y-299234D02*
D03*
X225689Y-284234D02*
D03*
Y-289234D02*
D03*
Y-294234D02*
D03*
Y-299234D02*
D03*
D36*
X96667Y-261325D02*
D03*
D37*
X117533D02*
D03*
D38*
X27188Y-123972D02*
D03*
X43723Y-123972D02*
D03*
X26708Y-104786D02*
D03*
X10172D02*
D03*
X78635Y-257216D02*
D03*
X48634Y-257216D02*
D03*
X385327Y-321388D02*
D03*
X401863Y-321388D02*
D03*
X18251Y-230118D02*
D03*
X34786Y-230118D02*
D03*
X27188Y-140426D02*
D03*
X43723Y-140426D02*
D03*
X401980Y-335888D02*
D03*
X385444Y-335888D02*
D03*
D39*
X344976Y-242699D02*
D03*
X307574D02*
D03*
D40*
X46546Y-167968D02*
D03*
X47213Y-204163D02*
D03*
X57770Y-221854D02*
D03*
D41*
X15050Y-167968D02*
D03*
X15717Y-204163D02*
D03*
X89266Y-221854D02*
D03*
D42*
X78928Y-287090D02*
D03*
X78928Y-303626D02*
D03*
X250390Y-289860D02*
D03*
Y-306395D02*
D03*
X264264Y-289732D02*
D03*
Y-306268D02*
D03*
X10206Y-123418D02*
D03*
Y-139954D02*
D03*
D43*
X94497Y-298017D02*
D03*
D44*
X103946D02*
D03*
D45*
X104340Y-292111D02*
D03*
X104340Y-303922D02*
D03*
D46*
X111369Y-243010D02*
D03*
D47*
X102314Y-219388D02*
D03*
X111369Y-219388D02*
D03*
X120424D02*
D03*
D48*
X336000Y-311500D02*
D03*
X341000Y-311500D02*
D03*
X346000D02*
D03*
X351000Y-311500D02*
D03*
X336000Y-291027D02*
D03*
X341000Y-291028D02*
D03*
X346000Y-291028D02*
D03*
X351000Y-291028D02*
D03*
X38827Y-246540D02*
D03*
X33827D02*
D03*
X28828D02*
D03*
X23828D02*
D03*
X38827Y-267012D02*
D03*
X33827Y-267012D02*
D03*
X28828D02*
D03*
X23828Y-267012D02*
D03*
D49*
X294331Y-294133D02*
D03*
X294331Y-288070D02*
D03*
X294331Y-301468D02*
D03*
Y-307531D02*
D03*
X294331Y-280440D02*
D03*
Y-274377D02*
D03*
D50*
X53259Y-303590D02*
D03*
D51*
X43963Y-331150D02*
D03*
X62555Y-331133D02*
D03*
D52*
X210624Y-209500D02*
D03*
D53*
Y-202500D02*
D03*
D54*
X78815Y-314430D02*
D03*
D55*
Y-331359D02*
D03*
D56*
X370532Y-309888D02*
D03*
X376595D02*
D03*
X332531Y-268691D02*
D03*
X326468Y-268691D02*
D03*
X318720Y-268500D02*
D03*
X312657Y-268500D02*
D03*
D57*
X326337Y-311550D02*
D03*
X326337Y-306550D02*
D03*
X326337Y-301550D02*
D03*
X326337Y-296550D02*
D03*
Y-291550D02*
D03*
Y-286550D02*
D03*
X326337Y-281550D02*
D03*
Y-276550D02*
D03*
X305864Y-311550D02*
D03*
X305864Y-306550D02*
D03*
X305864Y-301550D02*
D03*
Y-296550D02*
D03*
X305864Y-291550D02*
D03*
X305864Y-286550D02*
D03*
X305864Y-281550D02*
D03*
X305864Y-276550D02*
D03*
D58*
X479967Y-132150D02*
D03*
X465286Y-61150D02*
D03*
X436050Y-132150D02*
D03*
X421286Y-61150D02*
D03*
X392132Y-132150D02*
D03*
X377286Y-61150D02*
D03*
X348891Y-132150D02*
D03*
X333022Y-61150D02*
D03*
X304117Y-132150D02*
D03*
X288746Y-61192D02*
D03*
X252500Y-132650D02*
D03*
X237000Y-61650D02*
D03*
X208000Y-132650D02*
D03*
X192342Y-61692D02*
D03*
X163461Y-132650D02*
D03*
X147843Y-61650D02*
D03*
X119119Y-132650D02*
D03*
X103500Y-61650D02*
D03*
X74500Y-132650D02*
D03*
X59000Y-61650D02*
D03*
D59*
X488812Y-160763D02*
D03*
X474131Y-89763D02*
D03*
X444895Y-160763D02*
D03*
X430131Y-89763D02*
D03*
X400977Y-160763D02*
D03*
X386131Y-89763D02*
D03*
X357736Y-160763D02*
D03*
X341867Y-89763D02*
D03*
X312962Y-160763D02*
D03*
X297591Y-89804D02*
D03*
X261345Y-161263D02*
D03*
X245845Y-90263D02*
D03*
X216845Y-161263D02*
D03*
X201187Y-90304D02*
D03*
X172306Y-161263D02*
D03*
X156687Y-90263D02*
D03*
X127964Y-161263D02*
D03*
X112345Y-90263D02*
D03*
X83345Y-161263D02*
D03*
X67845Y-90263D02*
D03*
D60*
X471012Y-160663D02*
D03*
X456331Y-89663D02*
D03*
X427095Y-160663D02*
D03*
X412331Y-89663D02*
D03*
X383177Y-160663D02*
D03*
X368331Y-89663D02*
D03*
X339936Y-160663D02*
D03*
X324067Y-89663D02*
D03*
X295162Y-160663D02*
D03*
X279791Y-89704D02*
D03*
X243545Y-161163D02*
D03*
X228045Y-90163D02*
D03*
X199045Y-161163D02*
D03*
X183387Y-90204D02*
D03*
X154506Y-161163D02*
D03*
X138887Y-90163D02*
D03*
X110164Y-161163D02*
D03*
X94545Y-90163D02*
D03*
X65545Y-161163D02*
D03*
X50045Y-90163D02*
D03*
M02*
