G04*
G04 #@! TF.GenerationSoftware,Altium Limited,Altium Designer,18.1.9 (240)*
G04*
G04 Layer_Color=16711935*
%FSLAX25Y25*%
%MOIN*%
G70*
G01*
G75*
%ADD12C,0.01181*%
%ADD123C,0.00394*%
%ADD124C,0.00039*%
D12*
X0Y0D02*
X512000D01*
X512000Y-346500D01*
X0D02*
X512000D01*
X0D02*
Y0D01*
D123*
X220327Y-255142D02*
X220063Y-254157D01*
X219342Y-253437D01*
X218358Y-253173D01*
X217374Y-253437D01*
X216653Y-254157D01*
X216390Y-255142D01*
X216653Y-256126D01*
X217374Y-256846D01*
X218358Y-257110D01*
X219342Y-256846D01*
X220063Y-256126D01*
X220327Y-255142D01*
X213110Y-285336D02*
X212846Y-284352D01*
X212126Y-283632D01*
X211141Y-283368D01*
X210157Y-283632D01*
X209437Y-284352D01*
X209173Y-285336D01*
X209437Y-286321D01*
X210157Y-287041D01*
X211141Y-287305D01*
X212126Y-287041D01*
X212846Y-286321D01*
X213110Y-285336D01*
X351866Y-296953D02*
X351602Y-295969D01*
X350882Y-295248D01*
X349898Y-294984D01*
X348913Y-295248D01*
X348193Y-295969D01*
X347929Y-296953D01*
X348193Y-297937D01*
X348913Y-298657D01*
X349898Y-298921D01*
X350882Y-298657D01*
X351602Y-297937D01*
X351866Y-296953D01*
X39694Y-252465D02*
X39430Y-251481D01*
X38709Y-250760D01*
X37725Y-250496D01*
X36741Y-250760D01*
X36020Y-251481D01*
X35757Y-252465D01*
X36020Y-253449D01*
X36741Y-254170D01*
X37725Y-254433D01*
X38709Y-254170D01*
X39430Y-253449D01*
X39694Y-252465D01*
X313758Y-277495D02*
X313494Y-276511D01*
X312774Y-275790D01*
X311789Y-275526D01*
X310805Y-275790D01*
X310085Y-276511D01*
X309821Y-277495D01*
X310085Y-278479D01*
X310805Y-279200D01*
X311789Y-279463D01*
X312774Y-279200D01*
X313494Y-278479D01*
X313758Y-277495D01*
X125544Y-288094D02*
X125544Y-299905D01*
X130662Y-299905D02*
X130662Y-288094D01*
X125544D02*
X130662D01*
X125544Y-299905D02*
X130662Y-299905D01*
X214815Y-258685D02*
X254185D01*
X214815Y-219315D02*
X254185D01*
X214815Y-258685D02*
Y-219315D01*
X254185Y-258685D02*
Y-219315D01*
X207598Y-301675D02*
Y-281793D01*
X223307Y-301675D02*
Y-281793D01*
X207598D02*
X223307D01*
X207598Y-301675D02*
X223307D01*
X26952Y-129090D02*
X43959Y-129090D01*
X26952Y-118854D02*
X43959Y-118854D01*
X26952Y-129090D02*
X26952Y-118854D01*
X43959Y-129090D02*
Y-118854D01*
X9936Y-99668D02*
X26944D01*
X9936Y-109904D02*
X26944D01*
Y-99668D01*
X9936D02*
X9936Y-109904D01*
X385091Y-326506D02*
X385091Y-316270D01*
X402099Y-326506D02*
Y-316270D01*
X385091Y-326506D02*
X402099D01*
X385091Y-316270D02*
X402099D01*
X73810Y-303862D02*
X73810Y-286854D01*
X84046Y-303862D02*
X84046Y-286854D01*
X73810D02*
X84046D01*
X73810Y-303862D02*
X84046Y-303862D01*
X92155Y-288962D02*
X102351D01*
X92155Y-307072D02*
X102351D01*
X92155D02*
X92155Y-288962D01*
X102351D02*
X102351Y-307072D01*
X245272Y-306631D02*
Y-289623D01*
X255508Y-306631D02*
Y-289623D01*
X245272D02*
X255508D01*
X245272Y-306631D02*
X255508D01*
X259146Y-306504D02*
Y-289496D01*
X269382Y-306504D02*
Y-289496D01*
X259146D02*
X269382D01*
X259146Y-306504D02*
X269382D01*
X98180Y-238483D02*
Y-223916D01*
X124558Y-238483D02*
X124558Y-223916D01*
X98180Y-238483D02*
X124558D01*
X98180Y-223916D02*
X124558Y-223916D01*
X333559Y-309118D02*
Y-293409D01*
X353441Y-309118D02*
Y-293409D01*
X333559Y-309118D02*
X353441Y-309118D01*
X333559Y-293409D02*
X353441Y-293409D01*
X21386Y-248921D02*
X41268Y-248921D01*
X21386Y-264630D02*
X41268Y-264630D01*
Y-248921D01*
X21386Y-264630D02*
Y-248921D01*
X18014Y-235237D02*
X35022Y-235237D01*
X18014Y-225000D02*
X35022Y-225000D01*
X18014Y-235237D02*
Y-225000D01*
X35022Y-225000D02*
X35022Y-235237D01*
X5088Y-140190D02*
X5088Y-123182D01*
X15324Y-123182D02*
X15324Y-140190D01*
X5088Y-123182D02*
X15324Y-123182D01*
X5088Y-140190D02*
X15324D01*
X26952Y-145544D02*
X43959Y-145544D01*
X26952Y-135308D02*
X43959D01*
X26952Y-145544D02*
X26952Y-135308D01*
X43959Y-145544D02*
X43959Y-135308D01*
X385208Y-330770D02*
X402216D01*
X385208Y-341006D02*
X402216D01*
Y-330770D01*
X385208Y-341006D02*
Y-330770D01*
X308246Y-314148D02*
X323955D01*
X308246Y-273952D02*
X323955D01*
X323955Y-314148D01*
X308246Y-273952D02*
X308246Y-314148D01*
D124*
X169350Y-290950D02*
Y-284650D01*
X172500D01*
Y-290950D02*
Y-284650D01*
X169350Y-290950D02*
X172500Y-290950D01*
X234850Y-282224D02*
X241150D01*
Y-285373D02*
Y-282224D01*
X234850Y-285373D02*
X241150D01*
X234850D02*
Y-282224D01*
X360550Y-316650D02*
Y-310350D01*
X357400Y-316650D02*
X360550D01*
X357400D02*
Y-310350D01*
X360550D01*
X51524Y-236183D02*
Y-233034D01*
X45225D02*
X51524D01*
X45225Y-236183D02*
Y-233034D01*
Y-236183D02*
X51524D01*
X358323Y-258452D02*
X358323Y-252153D01*
X361473D01*
Y-258452D02*
Y-252153D01*
X358323Y-258452D02*
X361473D01*
X292672Y-242334D02*
X292672Y-248633D01*
X289523Y-248633D02*
X292672Y-248633D01*
X289523Y-248633D02*
Y-242334D01*
X292672Y-242334D01*
X102590Y-210086D02*
X108889D01*
X102590D02*
Y-206936D01*
X108889Y-206936D01*
X108889Y-210086D01*
X206050Y-260150D02*
Y-253850D01*
X202900Y-260150D02*
X206050Y-260150D01*
X202900Y-260150D02*
X202900Y-253850D01*
X206050D01*
X195768Y-260188D02*
Y-253889D01*
X198917Y-253889D01*
X198917Y-260188D02*
X198917Y-253889D01*
X195768Y-260188D02*
X198917Y-260188D01*
X274600Y-250050D02*
Y-246900D01*
X268300D02*
X274600D01*
X268300Y-250050D02*
X268300Y-246900D01*
X268300Y-250050D02*
X274600D01*
M02*
