G04*
G04 #@! TF.GenerationSoftware,Altium Limited,Altium Designer,18.1.9 (240)*
G04*
G04 Layer_Physical_Order=2*
G04 Layer_Color=16711680*
%FSLAX25Y25*%
%MOIN*%
G70*
G01*
G75*
%ADD12C,0.01181*%
%ADD14C,0.01000*%
%ADD19C,0.00600*%
%ADD108C,0.02000*%
%ADD109C,0.04000*%
%ADD110C,0.03000*%
%ADD111C,0.00700*%
%ADD115R,0.06693X0.06693*%
%ADD116C,0.06693*%
%ADD117C,0.06000*%
%ADD118C,0.02400*%
%ADD119R,0.06693X0.06693*%
%ADD120C,0.13780*%
%ADD121C,0.02362*%
%ADD122C,0.03937*%
G36*
X512500Y-347000D02*
X-500D01*
Y500D01*
X512500D01*
Y-347000D01*
D02*
G37*
%LPC*%
G36*
X192500Y-15612D02*
X191235Y-15778D01*
X190056Y-16267D01*
X189043Y-17043D01*
X188267Y-18056D01*
X187778Y-19235D01*
X187752Y-19433D01*
X187248D01*
X187222Y-19235D01*
X186733Y-18056D01*
X185957Y-17043D01*
X184944Y-16267D01*
X183765Y-15778D01*
X182500Y-15612D01*
X181235Y-15778D01*
X180056Y-16267D01*
X179043Y-17043D01*
X178267Y-18056D01*
X177778Y-19235D01*
X177752Y-19434D01*
X177248D01*
X177222Y-19235D01*
X176733Y-18056D01*
X175956Y-17043D01*
X174944Y-16267D01*
X173765Y-15778D01*
X172500Y-15612D01*
X171235Y-15778D01*
X170056Y-16267D01*
X169043Y-17043D01*
X168266Y-18056D01*
X167778Y-19235D01*
X167752Y-19433D01*
X167248D01*
X167222Y-19235D01*
X166733Y-18056D01*
X165956Y-17043D01*
X164944Y-16267D01*
X163765Y-15778D01*
X162500Y-15612D01*
X161235Y-15778D01*
X160056Y-16267D01*
X159044Y-17043D01*
X158267Y-18056D01*
X157778Y-19235D01*
X157752Y-19433D01*
X157248D01*
X157222Y-19235D01*
X156733Y-18056D01*
X155956Y-17043D01*
X154944Y-16267D01*
X153765Y-15778D01*
X152500Y-15612D01*
X151235Y-15778D01*
X150056Y-16267D01*
X149044Y-17043D01*
X148267Y-18056D01*
X147778Y-19235D01*
X147752Y-19433D01*
X147248D01*
X147222Y-19235D01*
X146733Y-18056D01*
X145957Y-17043D01*
X144944Y-16267D01*
X143765Y-15778D01*
X142500Y-15612D01*
X141235Y-15778D01*
X140056Y-16267D01*
X139043Y-17043D01*
X138267Y-18056D01*
X137778Y-19235D01*
X137752Y-19433D01*
X137248D01*
X137222Y-19235D01*
X136733Y-18056D01*
X135957Y-17043D01*
X134944Y-16267D01*
X133765Y-15778D01*
X132500Y-15612D01*
X131235Y-15778D01*
X130056Y-16267D01*
X129043Y-17043D01*
X128267Y-18056D01*
X127778Y-19235D01*
X127752Y-19433D01*
X127248D01*
X127222Y-19235D01*
X126733Y-18056D01*
X125956Y-17043D01*
X124944Y-16267D01*
X123765Y-15778D01*
X122500Y-15612D01*
X121235Y-15778D01*
X120056Y-16267D01*
X119044Y-17043D01*
X118267Y-18056D01*
X117778Y-19235D01*
X117752Y-19433D01*
X117248D01*
X117222Y-19235D01*
X116733Y-18056D01*
X115956Y-17043D01*
X114944Y-16267D01*
X113765Y-15778D01*
X112500Y-15612D01*
X111235Y-15778D01*
X110056Y-16267D01*
X109044Y-17043D01*
X108267Y-18056D01*
X107778Y-19235D01*
X107612Y-20500D01*
X107778Y-21765D01*
X108267Y-22944D01*
X109044Y-23956D01*
X110056Y-24733D01*
X111235Y-25222D01*
X112500Y-25388D01*
X113765Y-25222D01*
X114944Y-24733D01*
X115956Y-23956D01*
X116733Y-22944D01*
X117222Y-21765D01*
X117248Y-21567D01*
X117752D01*
X117778Y-21765D01*
X118267Y-22944D01*
X119044Y-23956D01*
X120056Y-24733D01*
X121235Y-25222D01*
X122500Y-25388D01*
X123765Y-25222D01*
X124944Y-24733D01*
X125956Y-23956D01*
X126733Y-22944D01*
X127222Y-21765D01*
X127248Y-21567D01*
X127752D01*
X127778Y-21765D01*
X128267Y-22944D01*
X129043Y-23956D01*
X130056Y-24733D01*
X131235Y-25222D01*
X132500Y-25388D01*
X133765Y-25222D01*
X134944Y-24733D01*
X135957Y-23956D01*
X136733Y-22944D01*
X137222Y-21765D01*
X137248Y-21567D01*
X137752D01*
X137778Y-21765D01*
X138267Y-22944D01*
X139043Y-23956D01*
X140056Y-24733D01*
X141235Y-25222D01*
X142500Y-25388D01*
X143765Y-25222D01*
X144944Y-24733D01*
X145957Y-23956D01*
X146733Y-22944D01*
X147222Y-21765D01*
X147248Y-21567D01*
X147752D01*
X147778Y-21765D01*
X148267Y-22944D01*
X149044Y-23956D01*
X150056Y-24733D01*
X151235Y-25222D01*
X152500Y-25388D01*
X153765Y-25222D01*
X154944Y-24733D01*
X155956Y-23956D01*
X156733Y-22944D01*
X157222Y-21765D01*
X157248Y-21567D01*
X157752D01*
X157778Y-21765D01*
X158267Y-22944D01*
X159044Y-23956D01*
X160056Y-24733D01*
X161235Y-25222D01*
X162500Y-25388D01*
X163765Y-25222D01*
X164944Y-24733D01*
X165956Y-23956D01*
X166733Y-22944D01*
X167222Y-21765D01*
X167248Y-21567D01*
X167752D01*
X167778Y-21765D01*
X168266Y-22944D01*
X169043Y-23956D01*
X170056Y-24733D01*
X171235Y-25222D01*
X172500Y-25388D01*
X173765Y-25222D01*
X174944Y-24733D01*
X175956Y-23956D01*
X176733Y-22944D01*
X177222Y-21765D01*
X177248Y-21566D01*
X177752D01*
X177778Y-21765D01*
X178267Y-22944D01*
X179043Y-23956D01*
X180056Y-24733D01*
X181235Y-25222D01*
X182500Y-25388D01*
X183765Y-25222D01*
X184944Y-24733D01*
X185957Y-23956D01*
X186733Y-22944D01*
X187222Y-21765D01*
X187248Y-21567D01*
X187752D01*
X187778Y-21765D01*
X188267Y-22944D01*
X189043Y-23956D01*
X190056Y-24733D01*
X191235Y-25222D01*
X192500Y-25388D01*
X193765Y-25222D01*
X194944Y-24733D01*
X195957Y-23956D01*
X196733Y-22944D01*
X197153Y-21930D01*
X197653Y-22029D01*
Y-25346D01*
X207347D01*
Y-15654D01*
X197653D01*
Y-18971D01*
X197153Y-19070D01*
X196733Y-18056D01*
X195957Y-17043D01*
X194944Y-16267D01*
X193765Y-15778D01*
X192500Y-15612D01*
D02*
G37*
G36*
X413500Y-15612D02*
X412235Y-15778D01*
X411056Y-16267D01*
X410043Y-17043D01*
X409267Y-18056D01*
X408778Y-19235D01*
X408752Y-19433D01*
X408248D01*
X408222Y-19235D01*
X407733Y-18056D01*
X406956Y-17043D01*
X405944Y-16267D01*
X404765Y-15778D01*
X403500Y-15612D01*
X402235Y-15778D01*
X401056Y-16267D01*
X400043Y-17043D01*
X399267Y-18056D01*
X398778Y-19235D01*
X398752Y-19434D01*
X398248D01*
X398222Y-19235D01*
X397733Y-18056D01*
X396956Y-17043D01*
X395944Y-16267D01*
X394765Y-15778D01*
X393500Y-15612D01*
X392235Y-15778D01*
X391056Y-16267D01*
X390043Y-17043D01*
X389266Y-18056D01*
X388778Y-19235D01*
X388752Y-19433D01*
X388248D01*
X388222Y-19235D01*
X387733Y-18056D01*
X386957Y-17043D01*
X385944Y-16267D01*
X384765Y-15778D01*
X383500Y-15612D01*
X382235Y-15778D01*
X381056Y-16267D01*
X380044Y-17043D01*
X379267Y-18056D01*
X378778Y-19235D01*
X378752Y-19433D01*
X378248D01*
X378222Y-19235D01*
X377733Y-18056D01*
X376957Y-17043D01*
X375944Y-16267D01*
X374765Y-15778D01*
X373500Y-15612D01*
X372235Y-15778D01*
X371056Y-16267D01*
X370043Y-17043D01*
X369267Y-18056D01*
X368778Y-19235D01*
X368752Y-19433D01*
X368248D01*
X368222Y-19235D01*
X367733Y-18056D01*
X366956Y-17043D01*
X365944Y-16267D01*
X364765Y-15778D01*
X363500Y-15612D01*
X362235Y-15778D01*
X361056Y-16267D01*
X360044Y-17043D01*
X359267Y-18056D01*
X358778Y-19235D01*
X358752Y-19433D01*
X358248D01*
X358222Y-19235D01*
X357733Y-18056D01*
X356957Y-17043D01*
X355944Y-16267D01*
X354765Y-15778D01*
X353500Y-15612D01*
X352235Y-15778D01*
X351056Y-16267D01*
X350044Y-17043D01*
X349267Y-18056D01*
X348778Y-19235D01*
X348752Y-19433D01*
X348248D01*
X348222Y-19235D01*
X347733Y-18056D01*
X346956Y-17043D01*
X345944Y-16267D01*
X344765Y-15778D01*
X343500Y-15612D01*
X342235Y-15778D01*
X341056Y-16267D01*
X340043Y-17043D01*
X339267Y-18056D01*
X338778Y-19235D01*
X338752Y-19433D01*
X338248D01*
X338222Y-19235D01*
X337733Y-18056D01*
X336957Y-17043D01*
X335944Y-16267D01*
X334765Y-15778D01*
X333500Y-15612D01*
X332235Y-15778D01*
X331056Y-16267D01*
X330044Y-17043D01*
X329267Y-18056D01*
X328778Y-19235D01*
X328612Y-20500D01*
X328778Y-21765D01*
X329267Y-22944D01*
X330044Y-23956D01*
X331056Y-24733D01*
X332235Y-25222D01*
X333500Y-25388D01*
X334765Y-25222D01*
X335944Y-24733D01*
X336957Y-23956D01*
X337733Y-22944D01*
X338222Y-21765D01*
X338248Y-21567D01*
X338752D01*
X338778Y-21765D01*
X339267Y-22944D01*
X340043Y-23956D01*
X341056Y-24733D01*
X342235Y-25222D01*
X343500Y-25388D01*
X344765Y-25222D01*
X345944Y-24733D01*
X346956Y-23956D01*
X347733Y-22944D01*
X348222Y-21765D01*
X348248Y-21567D01*
X348752D01*
X348778Y-21765D01*
X349267Y-22944D01*
X350044Y-23956D01*
X351056Y-24733D01*
X352235Y-25222D01*
X353500Y-25388D01*
X354765Y-25222D01*
X355944Y-24733D01*
X356957Y-23956D01*
X357733Y-22944D01*
X358222Y-21765D01*
X358248Y-21567D01*
X358752D01*
X358778Y-21765D01*
X359267Y-22944D01*
X360044Y-23956D01*
X361056Y-24733D01*
X362235Y-25222D01*
X363500Y-25388D01*
X364765Y-25222D01*
X365944Y-24733D01*
X366956Y-23956D01*
X367733Y-22944D01*
X368222Y-21765D01*
X368248Y-21567D01*
X368752D01*
X368778Y-21765D01*
X369267Y-22944D01*
X370043Y-23956D01*
X371056Y-24733D01*
X372235Y-25222D01*
X373500Y-25388D01*
X374765Y-25222D01*
X375944Y-24733D01*
X376957Y-23956D01*
X377733Y-22944D01*
X378222Y-21765D01*
X378248Y-21567D01*
X378752D01*
X378778Y-21765D01*
X379267Y-22944D01*
X380044Y-23956D01*
X381056Y-24733D01*
X382235Y-25222D01*
X383500Y-25388D01*
X384765Y-25222D01*
X385944Y-24733D01*
X386957Y-23956D01*
X387733Y-22944D01*
X388222Y-21765D01*
X388248Y-21567D01*
X388752D01*
X388778Y-21765D01*
X389266Y-22944D01*
X390043Y-23956D01*
X391056Y-24733D01*
X392235Y-25222D01*
X393500Y-25388D01*
X394765Y-25222D01*
X395944Y-24733D01*
X396956Y-23956D01*
X397733Y-22944D01*
X398222Y-21765D01*
X398248Y-21566D01*
X398752D01*
X398778Y-21765D01*
X399267Y-22944D01*
X400043Y-23956D01*
X401056Y-24733D01*
X402235Y-25222D01*
X403500Y-25388D01*
X404765Y-25222D01*
X405944Y-24733D01*
X406956Y-23956D01*
X407733Y-22944D01*
X408222Y-21765D01*
X408248Y-21567D01*
X408752D01*
X408778Y-21765D01*
X409267Y-22944D01*
X410043Y-23956D01*
X411056Y-24733D01*
X412235Y-25222D01*
X413500Y-25388D01*
X414765Y-25222D01*
X415944Y-24733D01*
X416957Y-23956D01*
X417733Y-22944D01*
X418153Y-21930D01*
X418653Y-22029D01*
Y-25346D01*
X428346D01*
Y-15654D01*
X418653D01*
Y-18971D01*
X418153Y-19070D01*
X417733Y-18056D01*
X416957Y-17043D01*
X415944Y-16267D01*
X414765Y-15778D01*
X413500Y-15612D01*
D02*
G37*
G36*
X492126Y-7318D02*
X490481Y-7480D01*
X488900Y-7959D01*
X487442Y-8738D01*
X486165Y-9787D01*
X485116Y-11064D01*
X484337Y-12522D01*
X483858Y-14103D01*
X483696Y-15748D01*
X483858Y-17393D01*
X484337Y-18974D01*
X485116Y-20432D01*
X486165Y-21709D01*
X487442Y-22758D01*
X488900Y-23537D01*
X490481Y-24016D01*
X492126Y-24178D01*
X493771Y-24016D01*
X495352Y-23537D01*
X496810Y-22758D01*
X498087Y-21709D01*
X499136Y-20432D01*
X499915Y-18974D01*
X500394Y-17393D01*
X500556Y-15748D01*
X500394Y-14103D01*
X499915Y-12522D01*
X499136Y-11064D01*
X498087Y-9787D01*
X496810Y-8738D01*
X495352Y-7959D01*
X493771Y-7480D01*
X492126Y-7318D01*
D02*
G37*
G36*
X19685D02*
X18040Y-7480D01*
X16459Y-7959D01*
X15001Y-8738D01*
X13724Y-9787D01*
X12675Y-11064D01*
X11896Y-12522D01*
X11417Y-14103D01*
X11255Y-15748D01*
X11417Y-17393D01*
X11896Y-18974D01*
X12675Y-20432D01*
X13724Y-21709D01*
X15001Y-22758D01*
X16459Y-23537D01*
X18040Y-24016D01*
X19685Y-24178D01*
X21330Y-24016D01*
X22911Y-23537D01*
X24369Y-22758D01*
X25646Y-21709D01*
X26695Y-20432D01*
X27474Y-18974D01*
X27953Y-17393D01*
X28115Y-15748D01*
X27953Y-14103D01*
X27474Y-12522D01*
X26695Y-11064D01*
X25646Y-9787D01*
X24369Y-8738D01*
X22911Y-7959D01*
X21330Y-7480D01*
X19685Y-7318D01*
D02*
G37*
G36*
X23590Y-33833D02*
X19744D01*
Y-37679D01*
X23590D01*
Y-33833D01*
D02*
G37*
G36*
X18744D02*
X14897D01*
Y-37679D01*
X18744D01*
Y-33833D01*
D02*
G37*
G36*
X23590Y-38679D02*
X19744D01*
Y-42526D01*
X23590D01*
Y-38679D01*
D02*
G37*
G36*
X18744D02*
X14897D01*
Y-42526D01*
X18744D01*
Y-38679D01*
D02*
G37*
G36*
X19744Y-43861D02*
Y-47679D01*
X23562D01*
X23478Y-47045D01*
X23040Y-45987D01*
X22343Y-45079D01*
X21436Y-44383D01*
X20378Y-43945D01*
X19744Y-43861D01*
D02*
G37*
G36*
X18744D02*
X18109Y-43945D01*
X17052Y-44383D01*
X16144Y-45079D01*
X15447Y-45987D01*
X15009Y-47045D01*
X14925Y-47679D01*
X18744D01*
Y-43861D01*
D02*
G37*
G36*
X23562Y-48679D02*
X19744D01*
Y-52498D01*
X20378Y-52414D01*
X21436Y-51976D01*
X22343Y-51279D01*
X23040Y-50371D01*
X23478Y-49314D01*
X23562Y-48679D01*
D02*
G37*
G36*
X18744D02*
X14925D01*
X15009Y-49314D01*
X15447Y-50371D01*
X16144Y-51279D01*
X17052Y-51976D01*
X18109Y-52414D01*
X18744Y-52498D01*
Y-48679D01*
D02*
G37*
G36*
X19244Y-53291D02*
X17978Y-53458D01*
X16799Y-53946D01*
X15787Y-54723D01*
X15010Y-55735D01*
X14522Y-56914D01*
X14355Y-58179D01*
X14522Y-59444D01*
X15010Y-60624D01*
X15787Y-61636D01*
X16799Y-62413D01*
X17978Y-62901D01*
X18177Y-62927D01*
Y-63432D01*
X17978Y-63458D01*
X16800Y-63946D01*
X15787Y-64723D01*
X15010Y-65735D01*
X14522Y-66914D01*
X14355Y-68179D01*
X14522Y-69445D01*
X15010Y-70623D01*
X15787Y-71636D01*
X16800Y-72413D01*
X17978Y-72901D01*
X19244Y-73068D01*
X20509Y-72901D01*
X21688Y-72413D01*
X22700Y-71636D01*
X23477Y-70623D01*
X23965Y-69445D01*
X24132Y-68179D01*
X23965Y-66914D01*
X23477Y-65735D01*
X22700Y-64723D01*
X21688Y-63946D01*
X20509Y-63458D01*
X20310Y-63432D01*
Y-62927D01*
X20509Y-62901D01*
X21688Y-62413D01*
X22700Y-61636D01*
X23477Y-60624D01*
X23965Y-59444D01*
X24132Y-58179D01*
X23965Y-56914D01*
X23477Y-55735D01*
X22700Y-54723D01*
X21688Y-53946D01*
X20509Y-53458D01*
X19244Y-53291D01*
D02*
G37*
G36*
X30240Y-82961D02*
X29066Y-83116D01*
X27971Y-83569D01*
X27031Y-84291D01*
X26310Y-85231D01*
X25856Y-86325D01*
X25702Y-87500D01*
X25856Y-88675D01*
X26310Y-89769D01*
X27031Y-90709D01*
X27971Y-91431D01*
X29066Y-91884D01*
X30240Y-92039D01*
X31415Y-91884D01*
X32510Y-91431D01*
X33450Y-90709D01*
X34171Y-89769D01*
X34625Y-88675D01*
X34779Y-87500D01*
X34625Y-86325D01*
X34171Y-85231D01*
X33450Y-84291D01*
X32510Y-83569D01*
X31415Y-83116D01*
X30240Y-82961D01*
D02*
G37*
G36*
X10240D02*
X9066Y-83116D01*
X7971Y-83569D01*
X7031Y-84291D01*
X6310Y-85231D01*
X5856Y-86325D01*
X5702Y-87500D01*
X5856Y-88675D01*
X6310Y-89769D01*
X7031Y-90709D01*
X7971Y-91431D01*
X9066Y-91884D01*
X10240Y-92039D01*
X11415Y-91884D01*
X12510Y-91431D01*
X13450Y-90709D01*
X14171Y-89769D01*
X14625Y-88675D01*
X14779Y-87500D01*
X14625Y-86325D01*
X14171Y-85231D01*
X13450Y-84291D01*
X12510Y-83569D01*
X11415Y-83116D01*
X10240Y-82961D01*
D02*
G37*
G36*
X491500Y-107031D02*
X490795Y-107124D01*
X490598Y-107205D01*
X479902D01*
X479705Y-107124D01*
X479000Y-107031D01*
X478295Y-107124D01*
X477638Y-107396D01*
X477074Y-107829D01*
X476642Y-108393D01*
X476369Y-109049D01*
X476277Y-109754D01*
X476369Y-110459D01*
X476642Y-111116D01*
X477074Y-111680D01*
X477638Y-112113D01*
X478295Y-112385D01*
X479000Y-112478D01*
X479705Y-112385D01*
X479902Y-112303D01*
X490598D01*
X490795Y-112385D01*
X491500Y-112478D01*
X492205Y-112385D01*
X492862Y-112113D01*
X493426Y-111680D01*
X493858Y-111116D01*
X494131Y-110459D01*
X494223Y-109754D01*
X494131Y-109049D01*
X493858Y-108393D01*
X493426Y-107829D01*
X492862Y-107396D01*
X492205Y-107124D01*
X491500Y-107031D01*
D02*
G37*
G36*
X465500Y-107073D02*
X464795Y-107166D01*
X464598Y-107247D01*
X435402D01*
X435205Y-107166D01*
X434500Y-107073D01*
X433795Y-107166D01*
X433138Y-107438D01*
X432574Y-107870D01*
X432142Y-108434D01*
X431870Y-109091D01*
X431777Y-109796D01*
X431870Y-110501D01*
X432142Y-111158D01*
X432574Y-111722D01*
X433138Y-112154D01*
X433795Y-112426D01*
X434500Y-112519D01*
X435205Y-112426D01*
X435402Y-112345D01*
X464598D01*
X464795Y-112426D01*
X465500Y-112519D01*
X466205Y-112426D01*
X466862Y-112154D01*
X467426Y-111722D01*
X467858Y-111158D01*
X468130Y-110501D01*
X468223Y-109796D01*
X468130Y-109091D01*
X467858Y-108434D01*
X467426Y-107870D01*
X466862Y-107438D01*
X466205Y-107166D01*
X465500Y-107073D01*
D02*
G37*
G36*
X386000Y-107031D02*
X385295Y-107124D01*
X384638Y-107396D01*
X384074Y-107829D01*
X383642Y-108393D01*
X383369Y-109049D01*
X383277Y-109754D01*
X383369Y-110459D01*
X383642Y-111116D01*
X384074Y-111680D01*
X384638Y-112113D01*
X385295Y-112385D01*
X386000Y-112478D01*
X386705Y-112385D01*
X386902Y-112303D01*
X404698D01*
X405451Y-113056D01*
Y-115000D01*
Y-122098D01*
X405370Y-122295D01*
X405277Y-123000D01*
X405370Y-123705D01*
X405642Y-124362D01*
X406074Y-124926D01*
X406638Y-125358D01*
X407295Y-125630D01*
X408000Y-125723D01*
X408705Y-125630D01*
X409362Y-125358D01*
X409926Y-124926D01*
X410358Y-124362D01*
X410631Y-123705D01*
X410723Y-123000D01*
X410631Y-122295D01*
X410549Y-122098D01*
Y-117702D01*
X410566Y-117585D01*
X410575Y-117549D01*
X424098D01*
X424295Y-117631D01*
X425000Y-117723D01*
X425705Y-117631D01*
X426362Y-117358D01*
X426926Y-116926D01*
X427358Y-116362D01*
X427631Y-115705D01*
X427723Y-115000D01*
X427631Y-114295D01*
X427358Y-113638D01*
X426926Y-113074D01*
X426362Y-112642D01*
X425705Y-112370D01*
X425000Y-112277D01*
X424295Y-112370D01*
X424098Y-112451D01*
X410575D01*
X410566Y-112415D01*
X410549Y-112298D01*
Y-112000D01*
X410500Y-111752D01*
X410500Y-111700D01*
X410480Y-111652D01*
X410355Y-111024D01*
X409802Y-110198D01*
X407557Y-107952D01*
X406730Y-107399D01*
X405754Y-107205D01*
X386902D01*
X386705Y-107124D01*
X386000Y-107031D01*
D02*
G37*
G36*
X182343Y-114727D02*
X181638Y-114820D01*
X180981Y-115092D01*
X180417Y-115524D01*
X179984Y-116088D01*
X179712Y-116745D01*
X179619Y-117450D01*
X179712Y-118155D01*
X179984Y-118812D01*
X180417Y-119376D01*
X180981Y-119808D01*
X181638Y-120080D01*
X182343Y-120173D01*
X183047Y-120080D01*
X183704Y-119808D01*
X184268Y-119376D01*
X184701Y-118812D01*
X184973Y-118155D01*
X185066Y-117450D01*
X184973Y-116745D01*
X184701Y-116088D01*
X184268Y-115524D01*
X183704Y-115092D01*
X183047Y-114820D01*
X182343Y-114727D01*
D02*
G37*
G36*
X93500D02*
X92795Y-114820D01*
X92138Y-115092D01*
X91574Y-115524D01*
X91141Y-116088D01*
X90869Y-116745D01*
X90777Y-117450D01*
X90869Y-118155D01*
X91141Y-118812D01*
X91574Y-119376D01*
X92138Y-119808D01*
X92795Y-120080D01*
X93500Y-120173D01*
X94205Y-120080D01*
X94862Y-119808D01*
X95426Y-119376D01*
X95859Y-118812D01*
X96131Y-118155D01*
X96223Y-117450D01*
X96131Y-116745D01*
X95859Y-116088D01*
X95426Y-115524D01*
X94862Y-115092D01*
X94205Y-114820D01*
X93500Y-114727D01*
D02*
G37*
G36*
X227000Y-114777D02*
X226295Y-114869D01*
X225638Y-115142D01*
X225074Y-115574D01*
X224642Y-116138D01*
X224370Y-116795D01*
X224277Y-117500D01*
X224370Y-118205D01*
X224642Y-118862D01*
X225074Y-119426D01*
X225638Y-119858D01*
X226295Y-120131D01*
X227000Y-120223D01*
X227705Y-120131D01*
X228362Y-119858D01*
X228926Y-119426D01*
X229358Y-118862D01*
X229630Y-118205D01*
X229723Y-117500D01*
X229630Y-116795D01*
X229358Y-116138D01*
X228926Y-115574D01*
X228362Y-115142D01*
X227705Y-114869D01*
X227000Y-114777D01*
D02*
G37*
G36*
X137843D02*
X137138Y-114869D01*
X136481Y-115142D01*
X135917Y-115574D01*
X135484Y-116138D01*
X135212Y-116795D01*
X135119Y-117500D01*
X135212Y-118205D01*
X135484Y-118862D01*
X135917Y-119426D01*
X136481Y-119858D01*
X137138Y-120131D01*
X137843Y-120223D01*
X138547Y-120131D01*
X139204Y-119858D01*
X139768Y-119426D01*
X140201Y-118862D01*
X140473Y-118205D01*
X140566Y-117500D01*
X140473Y-116795D01*
X140201Y-116138D01*
X139768Y-115574D01*
X139204Y-115142D01*
X138547Y-114869D01*
X137843Y-114777D01*
D02*
G37*
G36*
X456331Y-116816D02*
X455626Y-116908D01*
X454969Y-117181D01*
X454405Y-117613D01*
X453973Y-118177D01*
X453701Y-118834D01*
X453608Y-119539D01*
X453701Y-120244D01*
X453973Y-120901D01*
X454405Y-121465D01*
X454969Y-121897D01*
X455626Y-122169D01*
X456331Y-122262D01*
X457036Y-122169D01*
X457693Y-121897D01*
X458257Y-121465D01*
X458689Y-120901D01*
X458962Y-120244D01*
X459054Y-119539D01*
X458962Y-118834D01*
X458689Y-118177D01*
X458257Y-117613D01*
X457693Y-117181D01*
X457036Y-116908D01*
X456331Y-116816D01*
D02*
G37*
G36*
X280000Y-119277D02*
X279295Y-119369D01*
X278638Y-119642D01*
X278074Y-120074D01*
X277642Y-120638D01*
X277369Y-121295D01*
X277277Y-122000D01*
X277369Y-122705D01*
X277642Y-123362D01*
X278074Y-123926D01*
X278638Y-124358D01*
X279295Y-124630D01*
X280000Y-124723D01*
X280705Y-124630D01*
X281362Y-124358D01*
X281926Y-123926D01*
X282358Y-123362D01*
X282630Y-122705D01*
X282723Y-122000D01*
X282630Y-121295D01*
X282358Y-120638D01*
X281926Y-120074D01*
X281362Y-119642D01*
X280705Y-119369D01*
X280000Y-119277D01*
D02*
G37*
G36*
X414000Y-119777D02*
X413295Y-119869D01*
X412638Y-120142D01*
X412074Y-120574D01*
X411642Y-121138D01*
X411370Y-121795D01*
X411277Y-122500D01*
X411370Y-123205D01*
X411642Y-123862D01*
X412074Y-124426D01*
X412638Y-124858D01*
X413295Y-125130D01*
X414000Y-125223D01*
X414705Y-125130D01*
X415362Y-124858D01*
X415926Y-124426D01*
X416358Y-123862D01*
X416631Y-123205D01*
X416723Y-122500D01*
X416631Y-121795D01*
X416358Y-121138D01*
X415926Y-120574D01*
X415362Y-120142D01*
X414705Y-119869D01*
X414000Y-119777D01*
D02*
G37*
G36*
X369175Y-120277D02*
X368470Y-120370D01*
X367813Y-120642D01*
X367249Y-121074D01*
X366816Y-121638D01*
X366544Y-122295D01*
X366452Y-123000D01*
X366544Y-123705D01*
X366816Y-124362D01*
X367249Y-124926D01*
X367813Y-125358D01*
X368470Y-125630D01*
X369175Y-125723D01*
X369880Y-125630D01*
X370536Y-125358D01*
X371100Y-124926D01*
X371533Y-124362D01*
X371805Y-123705D01*
X371898Y-123000D01*
X371805Y-122295D01*
X371533Y-121638D01*
X371100Y-121074D01*
X370536Y-120642D01*
X369880Y-120370D01*
X369175Y-120277D01*
D02*
G37*
G36*
X302500Y-107031D02*
X301795Y-107124D01*
X301138Y-107396D01*
X300574Y-107829D01*
X300142Y-108393D01*
X299869Y-109049D01*
X299777Y-109754D01*
X299869Y-110459D01*
X300142Y-111116D01*
X300574Y-111680D01*
X301138Y-112113D01*
X301795Y-112385D01*
X302500Y-112478D01*
X303205Y-112385D01*
X303402Y-112303D01*
X316698D01*
X318135Y-113740D01*
Y-123098D01*
X318054Y-123295D01*
X317961Y-124000D01*
X318054Y-124705D01*
X318326Y-125362D01*
X318759Y-125926D01*
X319323Y-126358D01*
X319980Y-126630D01*
X320684Y-126723D01*
X321389Y-126630D01*
X321586Y-126549D01*
X325464D01*
X325710Y-127049D01*
X325642Y-127138D01*
X325370Y-127795D01*
X325277Y-128500D01*
X325370Y-129205D01*
X325642Y-129862D01*
X326074Y-130426D01*
X326638Y-130858D01*
X327295Y-131131D01*
X328000Y-131223D01*
X328705Y-131131D01*
X329362Y-130858D01*
X329926Y-130426D01*
X330358Y-129862D01*
X330630Y-129205D01*
X330723Y-128500D01*
X330630Y-127795D01*
X330358Y-127138D01*
X330290Y-127049D01*
X330537Y-126549D01*
X332598D01*
X332795Y-126630D01*
X333500Y-126723D01*
X334205Y-126630D01*
X334862Y-126358D01*
X335426Y-125926D01*
X335858Y-125362D01*
X336130Y-124705D01*
X336223Y-124000D01*
X336130Y-123295D01*
X335858Y-122638D01*
X335426Y-122074D01*
X334862Y-121642D01*
X334205Y-121370D01*
X333500Y-121277D01*
X332795Y-121370D01*
X332598Y-121451D01*
X323233D01*
Y-112684D01*
X323039Y-111709D01*
X322487Y-110882D01*
X319557Y-107952D01*
X318730Y-107399D01*
X317754Y-107205D01*
X303402D01*
X303205Y-107124D01*
X302500Y-107031D01*
D02*
G37*
G36*
X461139Y-6502D02*
X254500D01*
X253594Y-6621D01*
X252751Y-6970D01*
X252026Y-7526D01*
X245526Y-14026D01*
X244970Y-14751D01*
X244621Y-15595D01*
X244561Y-16047D01*
X244502Y-16500D01*
Y-80971D01*
X57000Y-80971D01*
X57000Y-80971D01*
X46000D01*
X45415Y-81087D01*
X44919Y-81419D01*
X44587Y-81915D01*
X44471Y-82500D01*
X44471Y-95829D01*
Y-109629D01*
X43971Y-109875D01*
X43862Y-109792D01*
X43205Y-109520D01*
X42500Y-109427D01*
X41795Y-109520D01*
X41138Y-109792D01*
X40574Y-110224D01*
X40142Y-110788D01*
X39869Y-111445D01*
X39777Y-112150D01*
X39869Y-112855D01*
X40142Y-113512D01*
X40574Y-114076D01*
X41138Y-114508D01*
X41795Y-114780D01*
X42500Y-114873D01*
X43205Y-114780D01*
X43862Y-114508D01*
X43971Y-114425D01*
X44471Y-114671D01*
X44471Y-165000D01*
X44587Y-165585D01*
X44919Y-166082D01*
X47919Y-169081D01*
X48415Y-169413D01*
X49000Y-169529D01*
X265000D01*
X265585Y-169413D01*
X266081Y-169081D01*
X266581Y-168581D01*
X266913Y-168085D01*
X267029Y-167500D01*
Y-153500D01*
X266913Y-152915D01*
X266581Y-152419D01*
X266081Y-151919D01*
X265585Y-151587D01*
X265000Y-151471D01*
X59633D01*
X59529Y-151366D01*
Y-98529D01*
X249500Y-98529D01*
X250085Y-98413D01*
X250581Y-98081D01*
X251081Y-97581D01*
X251413Y-97085D01*
X251529Y-96500D01*
Y-83500D01*
X251498Y-83344D01*
Y-17949D01*
X255949Y-13498D01*
X459690D01*
X496502Y-50310D01*
Y-77000D01*
X496502Y-177825D01*
X496040Y-178016D01*
X494733Y-176710D01*
X494237Y-176378D01*
X493652Y-176262D01*
X482283D01*
X481698Y-176378D01*
X481202Y-176710D01*
X480919Y-176993D01*
X480587Y-177489D01*
X480471Y-178075D01*
Y-179994D01*
X480470Y-180000D01*
Y-191821D01*
X474254Y-198037D01*
X473693Y-198768D01*
X473340Y-199619D01*
X473220Y-200533D01*
Y-335288D01*
X471538Y-336970D01*
X280462D01*
X278621Y-335129D01*
X278813Y-334667D01*
X278831D01*
Y-333242D01*
X278848Y-333155D01*
X278834Y-333085D01*
X278842Y-333015D01*
X278831Y-332978D01*
Y-324974D01*
X269138D01*
Y-332978D01*
X269127Y-333015D01*
X269134Y-333085D01*
X269120Y-333155D01*
X269138Y-333242D01*
Y-334667D01*
X270378D01*
X270416Y-334867D01*
X270444Y-335142D01*
X270454Y-335481D01*
Y-335484D01*
X270454Y-335485D01*
X270456Y-335530D01*
X270466Y-335577D01*
X270574Y-336398D01*
X270927Y-337249D01*
X271488Y-337981D01*
X276504Y-342996D01*
X277235Y-343557D01*
X278086Y-343910D01*
X279000Y-344030D01*
X473000D01*
X473914Y-343910D01*
X474765Y-343557D01*
X475496Y-342996D01*
X479246Y-339246D01*
X479807Y-338515D01*
X480160Y-337664D01*
X480280Y-336750D01*
Y-201995D01*
X486496Y-195779D01*
X487057Y-195048D01*
X487410Y-194197D01*
X487530Y-193283D01*
Y-186189D01*
X493887D01*
X494472Y-186072D01*
X494968Y-185741D01*
X496040Y-184669D01*
X496502Y-184861D01*
Y-197530D01*
X495937Y-198070D01*
X495439Y-198489D01*
X495423Y-198501D01*
X494841Y-198260D01*
X493576Y-198093D01*
X492311Y-198260D01*
X491132Y-198748D01*
X490119Y-199525D01*
X489342Y-200537D01*
X488854Y-201716D01*
X488688Y-202982D01*
X488854Y-204247D01*
X489342Y-205426D01*
X490119Y-206438D01*
X491132Y-207215D01*
X492311Y-207703D01*
X492509Y-207730D01*
Y-208234D01*
X492311Y-208260D01*
X491132Y-208748D01*
X490119Y-209525D01*
X489342Y-210538D01*
X488854Y-211717D01*
X488688Y-212982D01*
X488854Y-214247D01*
X489342Y-215426D01*
X490119Y-216438D01*
X491132Y-217215D01*
X492311Y-217703D01*
X492509Y-217729D01*
Y-218234D01*
X492311Y-218260D01*
X491132Y-218748D01*
X490119Y-219525D01*
X489342Y-220537D01*
X488854Y-221716D01*
X488688Y-222982D01*
X488854Y-224247D01*
X489342Y-225426D01*
X490119Y-226438D01*
X491132Y-227215D01*
X492311Y-227703D01*
X492509Y-227730D01*
Y-228234D01*
X492311Y-228260D01*
X491132Y-228748D01*
X490119Y-229525D01*
X489342Y-230538D01*
X488854Y-231716D01*
X488688Y-232982D01*
X488854Y-234247D01*
X489342Y-235426D01*
X490119Y-236438D01*
X491132Y-237215D01*
X492311Y-237703D01*
X492509Y-237730D01*
Y-238234D01*
X492311Y-238260D01*
X491132Y-238748D01*
X490119Y-239525D01*
X489342Y-240538D01*
X488854Y-241717D01*
X488688Y-242982D01*
X488854Y-244247D01*
X489342Y-245426D01*
X490119Y-246438D01*
X491132Y-247215D01*
X492311Y-247703D01*
X492509Y-247729D01*
Y-248234D01*
X492311Y-248260D01*
X491132Y-248748D01*
X490119Y-249525D01*
X489342Y-250537D01*
X488854Y-251716D01*
X488688Y-252982D01*
X488854Y-254247D01*
X489342Y-255426D01*
X490119Y-256438D01*
X491132Y-257215D01*
X492311Y-257703D01*
X492509Y-257730D01*
Y-258234D01*
X492311Y-258260D01*
X491132Y-258748D01*
X490119Y-259525D01*
X489342Y-260538D01*
X488854Y-261717D01*
X488688Y-262982D01*
X488854Y-264247D01*
X489342Y-265426D01*
X490119Y-266438D01*
X491132Y-267215D01*
X492311Y-267703D01*
X492509Y-267729D01*
Y-268234D01*
X492311Y-268260D01*
X491132Y-268748D01*
X490119Y-269525D01*
X489342Y-270537D01*
X488854Y-271716D01*
X488688Y-272982D01*
X488854Y-274247D01*
X489342Y-275426D01*
X490119Y-276438D01*
X491132Y-277215D01*
X492311Y-277703D01*
X492510Y-277729D01*
Y-278234D01*
X492311Y-278260D01*
X491132Y-278748D01*
X490119Y-279525D01*
X489342Y-280538D01*
X488854Y-281716D01*
X488688Y-282982D01*
X488854Y-284247D01*
X489342Y-285426D01*
X490119Y-286438D01*
X491132Y-287215D01*
X492311Y-287703D01*
X492509Y-287730D01*
Y-288234D01*
X492311Y-288260D01*
X491132Y-288748D01*
X490119Y-289525D01*
X489342Y-290538D01*
X488854Y-291717D01*
X488688Y-292982D01*
X488854Y-294247D01*
X489342Y-295426D01*
X490119Y-296438D01*
X491132Y-297215D01*
X492146Y-297635D01*
X492047Y-298135D01*
X488729D01*
Y-307828D01*
X498422D01*
Y-298135D01*
X495105D01*
X495006Y-297635D01*
X496020Y-297215D01*
X497032Y-296438D01*
X497809Y-295426D01*
X498298Y-294247D01*
X498464Y-292982D01*
X498298Y-291717D01*
X497809Y-290538D01*
X497032Y-289525D01*
X496020Y-288748D01*
X494841Y-288260D01*
X494642Y-288234D01*
Y-287730D01*
X494841Y-287703D01*
X496020Y-287215D01*
X497032Y-286438D01*
X497809Y-285426D01*
X498298Y-284247D01*
X498464Y-282982D01*
X498298Y-281716D01*
X497809Y-280538D01*
X497032Y-279525D01*
X496020Y-278748D01*
X494841Y-278260D01*
X494642Y-278234D01*
Y-277729D01*
X494841Y-277703D01*
X496020Y-277215D01*
X497032Y-276438D01*
X497809Y-275426D01*
X498298Y-274247D01*
X498464Y-272982D01*
X498298Y-271716D01*
X497809Y-270537D01*
X497032Y-269525D01*
X496020Y-268748D01*
X494841Y-268260D01*
X494643Y-268234D01*
Y-267729D01*
X494841Y-267703D01*
X496020Y-267215D01*
X497032Y-266438D01*
X497809Y-265426D01*
X498298Y-264247D01*
X498464Y-262982D01*
X498298Y-261717D01*
X497809Y-260538D01*
X497032Y-259525D01*
X496020Y-258748D01*
X494841Y-258260D01*
X494643Y-258234D01*
Y-257730D01*
X494841Y-257703D01*
X496020Y-257215D01*
X497032Y-256438D01*
X497809Y-255426D01*
X498298Y-254247D01*
X498464Y-252982D01*
X498298Y-251716D01*
X497809Y-250537D01*
X497032Y-249525D01*
X496020Y-248748D01*
X494841Y-248260D01*
X494642Y-248234D01*
Y-247729D01*
X494841Y-247703D01*
X496020Y-247215D01*
X497032Y-246438D01*
X497809Y-245426D01*
X498298Y-244247D01*
X498464Y-242982D01*
X498298Y-241717D01*
X497809Y-240538D01*
X497032Y-239525D01*
X496020Y-238748D01*
X494841Y-238260D01*
X494642Y-238234D01*
Y-237730D01*
X494841Y-237703D01*
X496020Y-237215D01*
X497032Y-236438D01*
X497809Y-235426D01*
X498298Y-234247D01*
X498464Y-232982D01*
X498298Y-231716D01*
X497809Y-230538D01*
X497032Y-229525D01*
X496020Y-228748D01*
X494841Y-228260D01*
X494642Y-228234D01*
Y-227730D01*
X494841Y-227703D01*
X496020Y-227215D01*
X497032Y-226438D01*
X497809Y-225426D01*
X498298Y-224247D01*
X498464Y-222982D01*
X498298Y-221716D01*
X497809Y-220537D01*
X497032Y-219525D01*
X496020Y-218748D01*
X494841Y-218260D01*
X494642Y-218234D01*
Y-217729D01*
X494841Y-217703D01*
X496020Y-217215D01*
X497032Y-216438D01*
X497809Y-215426D01*
X498298Y-214247D01*
X498464Y-212982D01*
X498298Y-211717D01*
X497809Y-210538D01*
X497032Y-209525D01*
X496020Y-208748D01*
X494841Y-208260D01*
X494642Y-208234D01*
Y-207730D01*
X494841Y-207703D01*
X496020Y-207215D01*
X497032Y-206438D01*
X497179Y-206248D01*
X497749Y-206011D01*
X498474Y-205455D01*
X502474Y-201455D01*
X503030Y-200731D01*
X503379Y-199887D01*
X503498Y-198982D01*
X503498Y-77000D01*
Y-48861D01*
X503439Y-48408D01*
X503379Y-47956D01*
X503234Y-47606D01*
X503030Y-47112D01*
X502474Y-46387D01*
X463613Y-7526D01*
X462888Y-6970D01*
X462044Y-6621D01*
X461591Y-6561D01*
X461139Y-6502D01*
D02*
G37*
G36*
X193150Y-180427D02*
X192445Y-180519D01*
X191788Y-180792D01*
X191224Y-181224D01*
X190792Y-181788D01*
X190519Y-182445D01*
X190427Y-183150D01*
X190519Y-183855D01*
X190792Y-184512D01*
X191224Y-185076D01*
X191788Y-185508D01*
X192445Y-185781D01*
X193150Y-185873D01*
X193855Y-185781D01*
X194512Y-185508D01*
X195076Y-185076D01*
X195508Y-184512D01*
X195781Y-183855D01*
X195873Y-183150D01*
X195781Y-182445D01*
X195508Y-181788D01*
X195076Y-181224D01*
X194512Y-180792D01*
X193855Y-180519D01*
X193150Y-180427D01*
D02*
G37*
G36*
X148119D02*
X147414Y-180519D01*
X146757Y-180792D01*
X146193Y-181224D01*
X145760Y-181788D01*
X145488Y-182445D01*
X145396Y-183150D01*
X145488Y-183855D01*
X145760Y-184512D01*
X146193Y-185076D01*
X146757Y-185508D01*
X147414Y-185781D01*
X148119Y-185873D01*
X148824Y-185781D01*
X149480Y-185508D01*
X150045Y-185076D01*
X150477Y-184512D01*
X150749Y-183855D01*
X150842Y-183150D01*
X150749Y-182445D01*
X150477Y-181788D01*
X150045Y-181224D01*
X149480Y-180792D01*
X148824Y-180519D01*
X148119Y-180427D01*
D02*
G37*
G36*
X104119D02*
X103414Y-180519D01*
X102757Y-180792D01*
X102193Y-181224D01*
X101760Y-181788D01*
X101488Y-182445D01*
X101396Y-183150D01*
X101488Y-183855D01*
X101760Y-184512D01*
X102193Y-185076D01*
X102757Y-185508D01*
X103414Y-185781D01*
X104119Y-185873D01*
X104824Y-185781D01*
X105481Y-185508D01*
X106044Y-185076D01*
X106477Y-184512D01*
X106749Y-183855D01*
X106842Y-183150D01*
X106749Y-182445D01*
X106477Y-181788D01*
X106044Y-181224D01*
X105481Y-180792D01*
X104824Y-180519D01*
X104119Y-180427D01*
D02*
G37*
G36*
X249000Y-186046D02*
X248295Y-186138D01*
X247638Y-186410D01*
X247074Y-186843D01*
X246642Y-187407D01*
X246370Y-188064D01*
X246277Y-188769D01*
X246370Y-189474D01*
X246642Y-190130D01*
X247074Y-190694D01*
X247638Y-191127D01*
X248295Y-191399D01*
X249000Y-191492D01*
X249705Y-191399D01*
X250362Y-191127D01*
X250926Y-190694D01*
X251358Y-190130D01*
X251630Y-189474D01*
X251723Y-188769D01*
X251630Y-188064D01*
X251358Y-187407D01*
X250926Y-186843D01*
X250362Y-186410D01*
X249705Y-186138D01*
X249000Y-186046D01*
D02*
G37*
G36*
X71250D02*
X70545Y-186138D01*
X69888Y-186410D01*
X69324Y-186843D01*
X68892Y-187407D01*
X68620Y-188064D01*
X68527Y-188769D01*
X68620Y-189474D01*
X68892Y-190130D01*
X69324Y-190694D01*
X69888Y-191127D01*
X70545Y-191399D01*
X71250Y-191492D01*
X71955Y-191399D01*
X72612Y-191127D01*
X73176Y-190694D01*
X73608Y-190130D01*
X73880Y-189474D01*
X73973Y-188769D01*
X73880Y-188064D01*
X73608Y-187407D01*
X73176Y-186843D01*
X72612Y-186410D01*
X71955Y-186138D01*
X71250Y-186046D01*
D02*
G37*
G36*
X468056Y-187277D02*
X467351Y-187370D01*
X466694Y-187642D01*
X466130Y-188074D01*
X465697Y-188638D01*
X465425Y-189295D01*
X465333Y-190000D01*
X465425Y-190705D01*
X465697Y-191362D01*
X466130Y-191926D01*
X466694Y-192358D01*
X467351Y-192631D01*
X468056Y-192723D01*
X468761Y-192631D01*
X469417Y-192358D01*
X469981Y-191926D01*
X470414Y-191362D01*
X470686Y-190705D01*
X470779Y-190000D01*
X470686Y-189295D01*
X470414Y-188638D01*
X469981Y-188074D01*
X469417Y-187642D01*
X468761Y-187370D01*
X468056Y-187277D01*
D02*
G37*
G36*
X377286Y-188277D02*
X376581Y-188370D01*
X375924Y-188642D01*
X375360Y-189074D01*
X374928Y-189638D01*
X374656Y-190295D01*
X374563Y-191000D01*
X374656Y-191705D01*
X374928Y-192362D01*
X374996Y-192451D01*
X374750Y-192951D01*
X362902D01*
X362705Y-192869D01*
X362000Y-192777D01*
X361295Y-192869D01*
X360638Y-193142D01*
X360074Y-193574D01*
X359642Y-194138D01*
X359369Y-194795D01*
X359277Y-195500D01*
X359369Y-196205D01*
X359642Y-196862D01*
X360074Y-197426D01*
X360638Y-197858D01*
X361295Y-198131D01*
X362000Y-198223D01*
X362705Y-198131D01*
X362902Y-198049D01*
X384098D01*
X384295Y-198131D01*
X385000Y-198223D01*
X385705Y-198131D01*
X386362Y-197858D01*
X386926Y-197426D01*
X387358Y-196862D01*
X387631Y-196205D01*
X387723Y-195500D01*
X387631Y-194795D01*
X387358Y-194138D01*
X386926Y-193574D01*
X386362Y-193142D01*
X385705Y-192869D01*
X385000Y-192777D01*
X384295Y-192869D01*
X384098Y-192951D01*
X379823D01*
X379576Y-192451D01*
X379645Y-192362D01*
X379917Y-191705D01*
X380010Y-191000D01*
X379917Y-190295D01*
X379645Y-189638D01*
X379212Y-189074D01*
X378648Y-188642D01*
X377991Y-188370D01*
X377286Y-188277D01*
D02*
G37*
G36*
X424303Y-187741D02*
X423598Y-187834D01*
X422941Y-188106D01*
X422377Y-188539D01*
X421944Y-189102D01*
X421672Y-189759D01*
X421579Y-190464D01*
X421672Y-191169D01*
X421944Y-191826D01*
X422377Y-192390D01*
X422941Y-192823D01*
X423598Y-193095D01*
X424303Y-193187D01*
X425008Y-193095D01*
X425664Y-192823D01*
X426228Y-192390D01*
X426661Y-191826D01*
X426933Y-191169D01*
X427026Y-190464D01*
X426933Y-189759D01*
X426661Y-189102D01*
X426228Y-188539D01*
X425664Y-188106D01*
X425008Y-187834D01*
X424303Y-187741D01*
D02*
G37*
G36*
X287757D02*
X287052Y-187834D01*
X286396Y-188106D01*
X285831Y-188539D01*
X285399Y-189102D01*
X285127Y-189759D01*
X285034Y-190464D01*
X285127Y-191169D01*
X285399Y-191826D01*
X285831Y-192390D01*
X286396Y-192823D01*
X287052Y-193095D01*
X287757Y-193187D01*
X288462Y-193095D01*
X289119Y-192823D01*
X289683Y-192390D01*
X290116Y-191826D01*
X290388Y-191169D01*
X290480Y-190464D01*
X290388Y-189759D01*
X290116Y-189102D01*
X289683Y-188539D01*
X289119Y-188106D01*
X288462Y-187834D01*
X287757Y-187741D01*
D02*
G37*
G36*
X336511Y-187777D02*
X335806Y-187870D01*
X335150Y-188142D01*
X334586Y-188574D01*
X334153Y-189138D01*
X333881Y-189795D01*
X333788Y-190500D01*
X333881Y-191205D01*
X334153Y-191862D01*
X334586Y-192426D01*
X335150Y-192858D01*
X335806Y-193131D01*
X336511Y-193223D01*
X337216Y-193131D01*
X337873Y-192858D01*
X338437Y-192426D01*
X338870Y-191862D01*
X339142Y-191205D01*
X339235Y-190500D01*
X339142Y-189795D01*
X338870Y-189138D01*
X338437Y-188574D01*
X337873Y-188142D01*
X337216Y-187870D01*
X336511Y-187777D01*
D02*
G37*
G36*
X448500Y-178031D02*
X447795Y-178124D01*
X447138Y-178396D01*
X446574Y-178829D01*
X446142Y-179393D01*
X445869Y-180049D01*
X445777Y-180754D01*
X445869Y-181459D01*
X446142Y-182116D01*
X446574Y-182680D01*
X447138Y-183113D01*
X447795Y-183385D01*
X448500Y-183478D01*
X449205Y-183385D01*
X449402Y-183303D01*
X454444D01*
X456557Y-185416D01*
Y-193098D01*
X456475Y-193295D01*
X456383Y-194000D01*
X456475Y-194705D01*
X456747Y-195362D01*
X457180Y-195926D01*
X457744Y-196358D01*
X458401Y-196631D01*
X459106Y-196723D01*
X459811Y-196631D01*
X460467Y-196358D01*
X461031Y-195926D01*
X461464Y-195362D01*
X461736Y-194705D01*
X461829Y-194000D01*
X461736Y-193295D01*
X461655Y-193098D01*
Y-184360D01*
X461461Y-183385D01*
X460908Y-182558D01*
X457302Y-178952D01*
X456475Y-178399D01*
X455500Y-178205D01*
X449402D01*
X449205Y-178124D01*
X448500Y-178031D01*
D02*
G37*
G36*
X321000Y-189811D02*
X320295Y-189904D01*
X319638Y-190176D01*
X319074Y-190609D01*
X318642Y-191173D01*
X318370Y-191830D01*
X318277Y-192535D01*
X318370Y-193239D01*
X318642Y-193896D01*
X319074Y-194460D01*
X319638Y-194893D01*
X319835Y-194975D01*
X322163Y-197302D01*
X322990Y-197855D01*
X323965Y-198049D01*
X332350D01*
X332546Y-198131D01*
X333251Y-198223D01*
X333956Y-198131D01*
X334613Y-197858D01*
X335177Y-197426D01*
X335610Y-196862D01*
X335882Y-196205D01*
X335975Y-195500D01*
X335882Y-194795D01*
X335610Y-194138D01*
X335177Y-193574D01*
X334613Y-193142D01*
X333956Y-192869D01*
X333251Y-192777D01*
X332546Y-192869D01*
X332350Y-192951D01*
X325021D01*
X323440Y-191370D01*
X323358Y-191173D01*
X322926Y-190609D01*
X322362Y-190176D01*
X321705Y-189904D01*
X321000Y-189811D01*
D02*
G37*
G36*
X469000Y-204646D02*
X468295Y-204738D01*
X467638Y-205011D01*
X467074Y-205443D01*
X466642Y-206007D01*
X466369Y-206664D01*
X466277Y-207369D01*
X466369Y-208074D01*
X466642Y-208731D01*
X467074Y-209295D01*
X467638Y-209727D01*
X468295Y-209999D01*
X469000Y-210092D01*
X469705Y-209999D01*
X470362Y-209727D01*
X470926Y-209295D01*
X471358Y-208731D01*
X471630Y-208074D01*
X471723Y-207369D01*
X471630Y-206664D01*
X471358Y-206007D01*
X470926Y-205443D01*
X470362Y-205011D01*
X469705Y-204738D01*
X469000Y-204646D01*
D02*
G37*
G36*
X429500Y-212819D02*
X428795Y-212911D01*
X428138Y-213183D01*
X427574Y-213616D01*
X427142Y-214180D01*
X426869Y-214837D01*
X426777Y-215542D01*
X426869Y-216247D01*
X427142Y-216903D01*
X427574Y-217467D01*
X428138Y-217900D01*
X428795Y-218172D01*
X429500Y-218265D01*
X430205Y-218172D01*
X430862Y-217900D01*
X431426Y-217467D01*
X431858Y-216903D01*
X432130Y-216247D01*
X432223Y-215542D01*
X432130Y-214837D01*
X431858Y-214180D01*
X431426Y-213616D01*
X430862Y-213183D01*
X430205Y-212911D01*
X429500Y-212819D01*
D02*
G37*
G36*
X155800Y-220282D02*
Y-224100D01*
X159618D01*
X159535Y-223465D01*
X159097Y-222408D01*
X158400Y-221500D01*
X157492Y-220803D01*
X156435Y-220365D01*
X155800Y-220282D01*
D02*
G37*
G36*
X154800D02*
X154165Y-220365D01*
X153108Y-220803D01*
X152200Y-221500D01*
X151503Y-222408D01*
X151268Y-222975D01*
X151333Y-222965D01*
X151678Y-222889D01*
X151989Y-222797D01*
X152268Y-222687D01*
X152515Y-222561D01*
X152729Y-222418D01*
X152910Y-222257D01*
Y-224100D01*
X154800D01*
Y-220282D01*
D02*
G37*
G36*
Y-225100D02*
X152910D01*
Y-226942D01*
X152729Y-226782D01*
X152515Y-226639D01*
X152268Y-226513D01*
X151989Y-226403D01*
X151678Y-226311D01*
X151333Y-226235D01*
X151268Y-226225D01*
X151503Y-226792D01*
X152200Y-227700D01*
X153108Y-228397D01*
X154165Y-228835D01*
X154800Y-228918D01*
Y-225100D01*
D02*
G37*
G36*
X135740Y-227254D02*
X134100D01*
Y-228348D01*
X134280Y-228272D01*
X134725Y-228016D01*
X135214Y-227675D01*
X135740Y-227254D01*
D02*
G37*
G36*
X133100D02*
X129253D01*
Y-231100D01*
X133100D01*
Y-228686D01*
X132692Y-228278D01*
X132924Y-228446D01*
X133100Y-228500D01*
Y-227254D01*
D02*
G37*
G36*
X159618Y-225100D02*
X155800D01*
Y-228918D01*
X156435Y-228835D01*
X157492Y-228397D01*
X158400Y-227700D01*
X159097Y-226792D01*
X159535Y-225735D01*
X159618Y-225100D01*
D02*
G37*
G36*
X137946Y-229489D02*
X137525Y-229986D01*
X137184Y-230475D01*
X136928Y-230920D01*
X136852Y-231100D01*
X137946D01*
Y-229489D01*
D02*
G37*
G36*
X134100Y-229686D02*
Y-231100D01*
X135514D01*
X134100Y-229686D01*
D02*
G37*
G36*
X468941Y-226019D02*
X468236Y-226111D01*
X467579Y-226383D01*
X467015Y-226816D01*
X466582Y-227380D01*
X466310Y-228037D01*
X466217Y-228742D01*
X466310Y-229447D01*
X466582Y-230103D01*
X467015Y-230667D01*
X467579Y-231100D01*
X468236Y-231372D01*
X468941Y-231465D01*
X469645Y-231372D01*
X470302Y-231100D01*
X470866Y-230667D01*
X471299Y-230103D01*
X471571Y-229447D01*
X471664Y-228742D01*
X471571Y-228037D01*
X471299Y-227380D01*
X470866Y-226816D01*
X470302Y-226383D01*
X469645Y-226111D01*
X468941Y-226019D01*
D02*
G37*
G36*
X137946Y-232100D02*
X136700D01*
X136754Y-232276D01*
X136923Y-232508D01*
X136514Y-232100D01*
X134100D01*
Y-235946D01*
X137946D01*
Y-232100D01*
D02*
G37*
G36*
X133100D02*
X129253D01*
Y-235946D01*
X133100D01*
Y-232100D01*
D02*
G37*
G36*
X430000Y-233331D02*
X429295Y-233424D01*
X428638Y-233696D01*
X428074Y-234129D01*
X427642Y-234693D01*
X427369Y-235350D01*
X427277Y-236054D01*
X427369Y-236759D01*
X427642Y-237416D01*
X428074Y-237980D01*
X428638Y-238413D01*
X429295Y-238685D01*
X430000Y-238778D01*
X430705Y-238685D01*
X431362Y-238413D01*
X431926Y-237980D01*
X432358Y-237416D01*
X432630Y-236759D01*
X432723Y-236054D01*
X432630Y-235350D01*
X432358Y-234693D01*
X431926Y-234129D01*
X431362Y-233696D01*
X430705Y-233424D01*
X430000Y-233331D01*
D02*
G37*
G36*
X204900Y-242096D02*
X204200Y-242188D01*
X203548Y-242458D01*
X202988Y-242888D01*
X202670Y-243302D01*
X202108Y-243464D01*
X202018Y-243444D01*
X201400Y-243188D01*
X200700Y-243096D01*
X200000Y-243188D01*
X199348Y-243458D01*
X198788Y-243888D01*
X198358Y-244448D01*
X198088Y-245100D01*
X197996Y-245800D01*
X198088Y-246500D01*
X198358Y-247152D01*
X198788Y-247712D01*
X199348Y-248142D01*
X200000Y-248412D01*
X200700Y-248504D01*
X201086Y-248453D01*
X202066Y-249434D01*
X202678Y-249843D01*
X203400Y-249986D01*
X221966D01*
X222055Y-250088D01*
X222269Y-250459D01*
X222271Y-250486D01*
X222270Y-250530D01*
X222267Y-250537D01*
X222259Y-250550D01*
X222246Y-250568D01*
X221900Y-250914D01*
X209200D01*
X208478Y-251057D01*
X207866Y-251466D01*
X203419Y-255914D01*
X179990D01*
X179976Y-255901D01*
X179812Y-255688D01*
X179252Y-255258D01*
X178600Y-254988D01*
X177900Y-254896D01*
X177200Y-254988D01*
X176548Y-255258D01*
X175988Y-255688D01*
X175558Y-256248D01*
X175288Y-256900D01*
X175196Y-257600D01*
X175288Y-258300D01*
X175558Y-258952D01*
X175988Y-259512D01*
X176548Y-259942D01*
X177200Y-260212D01*
X177900Y-260304D01*
X178600Y-260212D01*
X179252Y-259942D01*
X179353Y-259865D01*
X179447Y-259825D01*
X179522Y-259775D01*
X179556Y-259755D01*
X179589Y-259738D01*
X179622Y-259724D01*
X179657Y-259712D01*
X179694Y-259701D01*
X179735Y-259693D01*
X179780Y-259686D01*
X182399D01*
X182818Y-260186D01*
X182777Y-260500D01*
X182870Y-261205D01*
X183142Y-261862D01*
X183574Y-262426D01*
X184138Y-262858D01*
X184795Y-263130D01*
X185500Y-263223D01*
X186205Y-263130D01*
X186862Y-262858D01*
X187318Y-262508D01*
X187405Y-262454D01*
X187458Y-262404D01*
X187461Y-262401D01*
X187463Y-262400D01*
X187465Y-262399D01*
X187469Y-262398D01*
X187478Y-262394D01*
X187494Y-262390D01*
X187517Y-262386D01*
X204250D01*
X204972Y-262243D01*
X205584Y-261834D01*
X211174Y-256243D01*
X222965D01*
X222987Y-256247D01*
X223004Y-256251D01*
X223013Y-256255D01*
X223017Y-256256D01*
X223018Y-256257D01*
X223020Y-256258D01*
X223024Y-256261D01*
X223077Y-256311D01*
X223163Y-256365D01*
X223620Y-256715D01*
X224277Y-256987D01*
X224982Y-257080D01*
X225686Y-256987D01*
X226343Y-256715D01*
X226907Y-256282D01*
X227340Y-255718D01*
X227612Y-255062D01*
X227705Y-254357D01*
X227612Y-253652D01*
X227340Y-252995D01*
X227197Y-252809D01*
X226894Y-252412D01*
X227324Y-251852D01*
X227374Y-251730D01*
X227865Y-251632D01*
X228615Y-252382D01*
X228627Y-252400D01*
X228635Y-252414D01*
X228638Y-252420D01*
X228640Y-252486D01*
X228664Y-252588D01*
X228738Y-253150D01*
X229008Y-253802D01*
X229438Y-254362D01*
X229998Y-254792D01*
X230650Y-255062D01*
X231350Y-255154D01*
X232050Y-255062D01*
X232702Y-254792D01*
X233262Y-254362D01*
X233531Y-254012D01*
X233788D01*
X234348Y-254442D01*
X235000Y-254712D01*
X235700Y-254804D01*
X236400Y-254712D01*
X237052Y-254442D01*
X237612Y-254012D01*
X238042Y-253452D01*
X238312Y-252800D01*
X238404Y-252100D01*
X238312Y-251400D01*
X238042Y-250748D01*
X237612Y-250188D01*
X237052Y-249758D01*
X236400Y-249488D01*
X235838Y-249414D01*
X235736Y-249390D01*
X235670Y-249388D01*
X235663Y-249385D01*
X235650Y-249377D01*
X235632Y-249365D01*
X229734Y-243466D01*
X229122Y-243057D01*
X228400Y-242914D01*
X206882D01*
X206861Y-242910D01*
X206845Y-242906D01*
X206839Y-242904D01*
X206791Y-242859D01*
X206702Y-242803D01*
X206252Y-242458D01*
X205600Y-242188D01*
X204900Y-242096D01*
D02*
G37*
G36*
X28828Y-236777D02*
X28123Y-236870D01*
X27466Y-237142D01*
X26902Y-237574D01*
X26469Y-238138D01*
X26197Y-238795D01*
X26104Y-239500D01*
X26197Y-240205D01*
X26469Y-240862D01*
X26902Y-241426D01*
X27466Y-241859D01*
X28123Y-242130D01*
X28828Y-242223D01*
X29532Y-242130D01*
X30189Y-241859D01*
X30588Y-241552D01*
X30590Y-241552D01*
X30611Y-241548D01*
X30709Y-241539D01*
X79674D01*
X80250Y-242115D01*
X80251Y-242116D01*
X80279Y-242152D01*
X80303Y-242187D01*
X80304Y-242188D01*
X80370Y-242687D01*
X80642Y-243343D01*
X81074Y-243907D01*
X81638Y-244340D01*
X82295Y-244612D01*
X83000Y-244705D01*
X83705Y-244612D01*
X84362Y-244340D01*
X84926Y-243907D01*
X85359Y-243343D01*
X85631Y-242687D01*
X85723Y-241982D01*
X85631Y-241277D01*
X85359Y-240620D01*
X84926Y-240056D01*
X84362Y-239623D01*
X83705Y-239351D01*
X83206Y-239285D01*
X83205Y-239285D01*
X83187Y-239272D01*
X83111Y-239209D01*
X81960Y-238058D01*
X81299Y-237616D01*
X80518Y-237461D01*
X30678D01*
X30676Y-237461D01*
X30631Y-237456D01*
X30590Y-237448D01*
X30588Y-237448D01*
X30189Y-237142D01*
X29532Y-236870D01*
X28828Y-236777D01*
D02*
G37*
G36*
X280535Y-239249D02*
X264665D01*
X263943Y-239392D01*
X263331Y-239801D01*
X257919Y-245214D01*
X249881D01*
X248588Y-243920D01*
X248565Y-243889D01*
X248547Y-243860D01*
X248533Y-243834D01*
X248522Y-243810D01*
X248513Y-243786D01*
X248505Y-243761D01*
X248499Y-243734D01*
X248487Y-243651D01*
X248441Y-243519D01*
X248412Y-243300D01*
X248142Y-242648D01*
X247712Y-242088D01*
X247152Y-241658D01*
X246500Y-241388D01*
X245800Y-241296D01*
X245100Y-241388D01*
X244448Y-241658D01*
X243888Y-242088D01*
X243458Y-242648D01*
X243214Y-243237D01*
X242900Y-243196D01*
X242200Y-243288D01*
X241548Y-243558D01*
X240988Y-243988D01*
X240558Y-244548D01*
X240288Y-245200D01*
X240196Y-245900D01*
X240288Y-246600D01*
X240558Y-247252D01*
X240903Y-247702D01*
X240959Y-247791D01*
X241004Y-247839D01*
X241006Y-247846D01*
X241010Y-247861D01*
X241014Y-247882D01*
Y-277700D01*
X241157Y-278422D01*
X241526Y-278974D01*
X241411Y-279407D01*
X241384Y-279474D01*
X240253D01*
X239026Y-278247D01*
Y-266295D01*
X238923Y-265512D01*
X238620Y-264782D01*
X238140Y-264156D01*
X233886Y-259902D01*
X233260Y-259421D01*
X232530Y-259119D01*
X231747Y-259016D01*
X222029D01*
Y-259000D01*
X221913Y-258415D01*
X221581Y-257919D01*
X221081Y-257419D01*
X220585Y-257087D01*
X220000Y-256971D01*
X214262D01*
X214018Y-256870D01*
X213313Y-256777D01*
X212608Y-256870D01*
X212238Y-257023D01*
X211915Y-257087D01*
X211419Y-257419D01*
X210919Y-257919D01*
X210587Y-258415D01*
X210471Y-259000D01*
Y-264500D01*
X210587Y-265085D01*
X210919Y-265581D01*
X212231Y-266894D01*
X212727Y-267226D01*
X213313Y-267342D01*
X220000D01*
X220585Y-267226D01*
X221081Y-266894D01*
X221581Y-266394D01*
X221913Y-265898D01*
X222029Y-265313D01*
Y-265068D01*
X230493D01*
X232974Y-267549D01*
Y-279500D01*
X233077Y-280283D01*
X233380Y-281013D01*
X233860Y-281640D01*
X236860Y-284640D01*
X237487Y-285121D01*
X238217Y-285423D01*
X239000Y-285526D01*
X239948D01*
X239951Y-285656D01*
Y-288598D01*
X239869Y-288795D01*
X239777Y-289500D01*
X239869Y-290205D01*
X240142Y-290862D01*
X240574Y-291426D01*
X241138Y-291858D01*
X241795Y-292130D01*
X242500Y-292223D01*
X243205Y-292130D01*
X243862Y-291858D01*
X244426Y-291426D01*
X244858Y-290862D01*
X245130Y-290205D01*
X245223Y-289500D01*
X245130Y-288795D01*
X245049Y-288598D01*
Y-285526D01*
X259877D01*
X260660Y-285423D01*
X261390Y-285121D01*
X262017Y-284640D01*
X265589Y-281068D01*
X273612D01*
X273625Y-281071D01*
X274151Y-281084D01*
X274557Y-281120D01*
X274878Y-281173D01*
X275105Y-281234D01*
X275153Y-281254D01*
Y-282888D01*
X284846D01*
Y-281254D01*
X284895Y-281234D01*
X285122Y-281173D01*
X285442Y-281120D01*
X285849Y-281084D01*
X286374Y-281071D01*
X286388Y-281068D01*
X334149D01*
X334932Y-280965D01*
X335662Y-280662D01*
X336289Y-280181D01*
X339908Y-276563D01*
X340388Y-275936D01*
X340691Y-275206D01*
X340794Y-274423D01*
Y-272947D01*
X341335Y-272839D01*
X341831Y-272508D01*
X342331Y-272008D01*
X342526Y-271717D01*
X347567D01*
X347569Y-271726D01*
X347901Y-272222D01*
X348186Y-272508D01*
X348682Y-272839D01*
X349267Y-272956D01*
X354982D01*
X355567Y-272839D01*
X356063Y-272508D01*
X356563Y-272008D01*
X356895Y-271512D01*
X357011Y-270926D01*
X357011Y-266641D01*
X356895Y-266056D01*
X356563Y-265560D01*
X356063Y-265059D01*
X355567Y-264728D01*
X354982Y-264612D01*
X349482D01*
X348897Y-264728D01*
X348400Y-265059D01*
X347901Y-265560D01*
X347830Y-265665D01*
X342402D01*
X342331Y-265560D01*
X341831Y-265059D01*
X341335Y-264728D01*
X340750Y-264612D01*
X335250D01*
X334665Y-264728D01*
X334169Y-265059D01*
X333669Y-265560D01*
X333337Y-266056D01*
X333221Y-266641D01*
Y-271141D01*
X333337Y-271726D01*
X333669Y-272222D01*
X333954Y-272508D01*
X334405Y-272809D01*
X334464Y-272918D01*
X334544Y-273368D01*
X332896Y-275016D01*
X286388D01*
X286374Y-275013D01*
X285849Y-274999D01*
X285442Y-274963D01*
X285122Y-274910D01*
X284895Y-274849D01*
X284846Y-274830D01*
Y-273195D01*
X275153D01*
Y-274830D01*
X275105Y-274849D01*
X274878Y-274910D01*
X274557Y-274963D01*
X274151Y-274999D01*
X273625Y-275013D01*
X273612Y-275016D01*
X271026D01*
Y-251795D01*
X270923Y-251012D01*
X270620Y-250282D01*
X270140Y-249656D01*
X269513Y-249175D01*
X268783Y-248872D01*
X268000Y-248769D01*
X267217Y-248872D01*
X266487Y-249175D01*
X265860Y-249656D01*
X265380Y-250282D01*
X265077Y-251012D01*
X264974Y-251795D01*
Y-264759D01*
X264474Y-264929D01*
X264212Y-264588D01*
X263652Y-264158D01*
X263000Y-263888D01*
X262300Y-263796D01*
X261600Y-263888D01*
X260948Y-264158D01*
X260388Y-264588D01*
X259958Y-265148D01*
X259412Y-265159D01*
X259000Y-264988D01*
X258300Y-264896D01*
X257600Y-264988D01*
X256948Y-265258D01*
X256388Y-265688D01*
X255958Y-266248D01*
X255688Y-266900D01*
X255658Y-267131D01*
X255224Y-267381D01*
X255000Y-267288D01*
X254300Y-267196D01*
X253600Y-267288D01*
X252948Y-267558D01*
X252388Y-267988D01*
X251958Y-268548D01*
X251688Y-269200D01*
X251596Y-269900D01*
X251688Y-270600D01*
X251958Y-271252D01*
X252310Y-271711D01*
X252364Y-271797D01*
X252425Y-271861D01*
X252441Y-271880D01*
X252450Y-271893D01*
X252456Y-271903D01*
X252459Y-271909D01*
X252461Y-271916D01*
X252464Y-271924D01*
X252465Y-271931D01*
Y-274091D01*
X252412Y-274138D01*
X252359Y-274209D01*
X252274Y-274274D01*
X251842Y-274838D01*
X251570Y-275495D01*
X251477Y-276200D01*
X251570Y-276905D01*
X251608Y-276998D01*
X251330Y-277414D01*
X245281D01*
X244786Y-276919D01*
Y-252134D01*
X245286Y-251695D01*
X245500Y-251723D01*
X246205Y-251630D01*
X246862Y-251358D01*
X247318Y-251008D01*
X247405Y-250954D01*
X247458Y-250904D01*
X247462Y-250901D01*
X247463Y-250900D01*
X247465Y-250899D01*
X247469Y-250898D01*
X247478Y-250894D01*
X247494Y-250890D01*
X247517Y-250886D01*
X260000D01*
X260722Y-250743D01*
X261334Y-250334D01*
X266396Y-245271D01*
X275377D01*
X275400Y-245275D01*
X275417Y-245279D01*
X275426Y-245283D01*
X275430Y-245284D01*
X275431Y-245285D01*
X275433Y-245286D01*
X275437Y-245289D01*
X275489Y-245339D01*
X275576Y-245393D01*
X276032Y-245743D01*
X276689Y-246015D01*
X277394Y-246108D01*
X278099Y-246015D01*
X278756Y-245743D01*
X279320Y-245310D01*
X279753Y-244746D01*
X279794Y-244647D01*
X280335D01*
X280342Y-244662D01*
X280774Y-245226D01*
X281338Y-245658D01*
X281995Y-245931D01*
X282700Y-246023D01*
X283405Y-245931D01*
X284062Y-245658D01*
X284626Y-245226D01*
X285058Y-244662D01*
X285331Y-244005D01*
X285423Y-243300D01*
X285331Y-242595D01*
X285058Y-241938D01*
X284626Y-241374D01*
X284062Y-240942D01*
X283405Y-240669D01*
X282834Y-240594D01*
X282735Y-240571D01*
X282662Y-240569D01*
X282657Y-240569D01*
X282656Y-240568D01*
X282654Y-240568D01*
X282650Y-240566D01*
X282641Y-240562D01*
X282627Y-240553D01*
X282608Y-240540D01*
X281869Y-239801D01*
X281257Y-239392D01*
X280535Y-239249D01*
D02*
G37*
G36*
X133600Y-236712D02*
X132335Y-236878D01*
X131156Y-237367D01*
X130143Y-238143D01*
X129367Y-239156D01*
X128878Y-240335D01*
X128712Y-241600D01*
X128878Y-242865D01*
X129367Y-244044D01*
X130143Y-245057D01*
X131156Y-245833D01*
X132335Y-246322D01*
X133600Y-246488D01*
X134865Y-246322D01*
X136044Y-245833D01*
X137057Y-245057D01*
X137833Y-244044D01*
X138322Y-242865D01*
X138488Y-241600D01*
X138322Y-240335D01*
X137833Y-239156D01*
X137057Y-238143D01*
X136044Y-237367D01*
X134865Y-236878D01*
X133600Y-236712D01*
D02*
G37*
G36*
X155300Y-229712D02*
X154035Y-229878D01*
X152856Y-230367D01*
X151844Y-231143D01*
X151067Y-232156D01*
X150578Y-233335D01*
X150412Y-234600D01*
X150578Y-235865D01*
X151067Y-237044D01*
X151844Y-238056D01*
X152856Y-238833D01*
X153870Y-239253D01*
X153771Y-239754D01*
X150453D01*
Y-249446D01*
X160146D01*
Y-239754D01*
X156829D01*
X156730Y-239253D01*
X157744Y-238833D01*
X158756Y-238056D01*
X159533Y-237044D01*
X160022Y-235865D01*
X160188Y-234600D01*
X160022Y-233335D01*
X159533Y-232156D01*
X158756Y-231143D01*
X157744Y-230367D01*
X156565Y-229878D01*
X155300Y-229712D01*
D02*
G37*
G36*
X469000Y-246646D02*
X468295Y-246739D01*
X467638Y-247010D01*
X467074Y-247443D01*
X466642Y-248007D01*
X466369Y-248664D01*
X466277Y-249369D01*
X466369Y-250074D01*
X466642Y-250731D01*
X467074Y-251295D01*
X467638Y-251727D01*
X468295Y-251999D01*
X469000Y-252092D01*
X469705Y-251999D01*
X470362Y-251727D01*
X470926Y-251295D01*
X471358Y-250731D01*
X471630Y-250074D01*
X471723Y-249369D01*
X471630Y-248664D01*
X471358Y-248007D01*
X470926Y-247443D01*
X470362Y-247010D01*
X469705Y-246739D01*
X469000Y-246646D01*
D02*
G37*
G36*
X430000Y-254331D02*
X429295Y-254424D01*
X428638Y-254696D01*
X428074Y-255129D01*
X427642Y-255693D01*
X427369Y-256350D01*
X427277Y-257054D01*
X427369Y-257759D01*
X427642Y-258416D01*
X428074Y-258980D01*
X428638Y-259413D01*
X429295Y-259685D01*
X430000Y-259778D01*
X430705Y-259685D01*
X431362Y-259413D01*
X431926Y-258980D01*
X432358Y-258416D01*
X432630Y-257759D01*
X432723Y-257054D01*
X432630Y-256350D01*
X432358Y-255693D01*
X431926Y-255129D01*
X431362Y-254696D01*
X430705Y-254424D01*
X430000Y-254331D01*
D02*
G37*
G36*
X469000Y-267646D02*
X468295Y-267739D01*
X467638Y-268010D01*
X467074Y-268443D01*
X466642Y-269007D01*
X466369Y-269664D01*
X466277Y-270369D01*
X466369Y-271074D01*
X466642Y-271731D01*
X467074Y-272295D01*
X467638Y-272727D01*
X468295Y-273000D01*
X469000Y-273092D01*
X469705Y-273000D01*
X470362Y-272727D01*
X470926Y-272295D01*
X471358Y-271731D01*
X471630Y-271074D01*
X471723Y-270369D01*
X471630Y-269664D01*
X471358Y-269007D01*
X470926Y-268443D01*
X470362Y-268010D01*
X469705Y-267739D01*
X469000Y-267646D01*
D02*
G37*
G36*
X346888Y-276544D02*
X346183Y-276637D01*
X345526Y-276909D01*
X344962Y-277342D01*
X344529Y-277906D01*
X344257Y-278563D01*
X344164Y-279268D01*
X344215Y-279656D01*
X343829Y-280156D01*
X343017D01*
X342994Y-280152D01*
X342978Y-280147D01*
X342969Y-280144D01*
X342965Y-280142D01*
X342963Y-280142D01*
X342962Y-280141D01*
X342958Y-280137D01*
X342905Y-280088D01*
X342818Y-280034D01*
X342362Y-279683D01*
X341705Y-279411D01*
X341000Y-279318D01*
X340295Y-279411D01*
X339638Y-279683D01*
X339074Y-280116D01*
X338642Y-280680D01*
X338369Y-281337D01*
X338277Y-282042D01*
X338369Y-282747D01*
X338642Y-283403D01*
X339074Y-283967D01*
X339638Y-284400D01*
X340295Y-284672D01*
X341000Y-284765D01*
X341705Y-284672D01*
X342362Y-284400D01*
X342818Y-284050D01*
X342905Y-283996D01*
X342958Y-283946D01*
X342962Y-283943D01*
X342963Y-283942D01*
X342965Y-283941D01*
X342969Y-283939D01*
X342977Y-283936D01*
X342994Y-283932D01*
X343017Y-283928D01*
X346131D01*
X346853Y-283785D01*
X347465Y-283376D01*
X348221Y-282619D01*
X348630Y-282007D01*
X348746Y-281426D01*
X348766Y-281341D01*
X348767Y-281321D01*
X348774Y-281286D01*
Y-281246D01*
X348774Y-281245D01*
X348783Y-281234D01*
X348837Y-281178D01*
X348890Y-281094D01*
X349246Y-280629D01*
X349518Y-279973D01*
X349611Y-279268D01*
X349518Y-278563D01*
X349246Y-277906D01*
X348813Y-277342D01*
X348249Y-276909D01*
X347593Y-276637D01*
X346888Y-276544D01*
D02*
G37*
G36*
X430000Y-275331D02*
X429295Y-275424D01*
X428638Y-275696D01*
X428074Y-276129D01*
X427642Y-276693D01*
X427369Y-277350D01*
X427277Y-278054D01*
X427369Y-278759D01*
X427642Y-279416D01*
X428074Y-279980D01*
X428638Y-280413D01*
X429295Y-280685D01*
X430000Y-280778D01*
X430705Y-280685D01*
X431362Y-280413D01*
X431926Y-279980D01*
X432358Y-279416D01*
X432630Y-278759D01*
X432723Y-278054D01*
X432630Y-277350D01*
X432358Y-276693D01*
X431926Y-276129D01*
X431362Y-275696D01*
X430705Y-275424D01*
X430000Y-275331D01*
D02*
G37*
G36*
X133800Y-267596D02*
X133100Y-267688D01*
X132448Y-267958D01*
X131888Y-268388D01*
X131458Y-268948D01*
X131188Y-269600D01*
X131096Y-270300D01*
X131188Y-271000D01*
X131458Y-271652D01*
X131750Y-272032D01*
X131753Y-272049D01*
X131761Y-272143D01*
Y-293655D01*
X130155Y-295261D01*
X119011D01*
X118968Y-295256D01*
X118932Y-295250D01*
X118552Y-294958D01*
X117900Y-294688D01*
X117200Y-294596D01*
X116500Y-294688D01*
X115848Y-294958D01*
X115288Y-295388D01*
X114858Y-295948D01*
X114588Y-296600D01*
X114496Y-297300D01*
X114588Y-298000D01*
X114858Y-298652D01*
X115288Y-299212D01*
X115848Y-299642D01*
X116500Y-299912D01*
X117200Y-300004D01*
X117900Y-299912D01*
X118552Y-299642D01*
X118932Y-299350D01*
X118949Y-299347D01*
X119043Y-299339D01*
X130986D01*
X131015Y-299370D01*
X131229Y-299803D01*
X130358Y-300674D01*
X129949Y-301286D01*
X129806Y-302008D01*
Y-324065D01*
X129801Y-324152D01*
X129770Y-324327D01*
X129713Y-324525D01*
X129626Y-324747D01*
X129503Y-324992D01*
X129341Y-325261D01*
X129152Y-325532D01*
X128594Y-326195D01*
X128307Y-326488D01*
X128236Y-326543D01*
X127459Y-327556D01*
X126971Y-328735D01*
X126804Y-330000D01*
X126971Y-331265D01*
X127459Y-332444D01*
X128236Y-333456D01*
X129248Y-334233D01*
X130427Y-334722D01*
X131692Y-334888D01*
X132957Y-334722D01*
X134136Y-334233D01*
X135149Y-333456D01*
X135926Y-332444D01*
X136414Y-331265D01*
X136581Y-330000D01*
X136414Y-328735D01*
X135926Y-327556D01*
X135149Y-326543D01*
X135077Y-326488D01*
X134776Y-326180D01*
X134489Y-325857D01*
X134245Y-325549D01*
X134043Y-325261D01*
X133882Y-324992D01*
X133759Y-324747D01*
X133671Y-324525D01*
X133614Y-324327D01*
X133584Y-324152D01*
X133578Y-324064D01*
Y-302789D01*
X136834Y-299534D01*
X137243Y-298922D01*
X137386Y-298200D01*
Y-280881D01*
X137981Y-280286D01*
X153018D01*
X153039Y-280290D01*
X153054Y-280294D01*
X153061Y-280296D01*
X153109Y-280341D01*
X153198Y-280397D01*
X153648Y-280742D01*
X154300Y-281012D01*
X155000Y-281104D01*
X155700Y-281012D01*
X156352Y-280742D01*
X156912Y-280312D01*
X157342Y-279752D01*
X157612Y-279100D01*
X157704Y-278400D01*
X157612Y-277700D01*
X157342Y-277048D01*
X156912Y-276488D01*
X156352Y-276058D01*
X155700Y-275788D01*
X155000Y-275696D01*
X154300Y-275788D01*
X153648Y-276058D01*
X153198Y-276403D01*
X153109Y-276459D01*
X153061Y-276504D01*
X153054Y-276506D01*
X153039Y-276510D01*
X153018Y-276514D01*
X137200D01*
X136478Y-276657D01*
X136339Y-276750D01*
X135839Y-276483D01*
Y-272111D01*
X135844Y-272068D01*
X135850Y-272032D01*
X136142Y-271652D01*
X136412Y-271000D01*
X136504Y-270300D01*
X136412Y-269600D01*
X136142Y-268948D01*
X135712Y-268388D01*
X135152Y-267958D01*
X134500Y-267688D01*
X133800Y-267596D01*
D02*
G37*
G36*
X280500Y-283724D02*
Y-287542D01*
X284318D01*
X284235Y-286907D01*
X283797Y-285850D01*
X283100Y-284942D01*
X282192Y-284245D01*
X281135Y-283807D01*
X280500Y-283724D01*
D02*
G37*
G36*
X279500D02*
X278865Y-283807D01*
X277808Y-284245D01*
X276900Y-284942D01*
X276203Y-285850D01*
X275968Y-286417D01*
X276033Y-286407D01*
X276378Y-286331D01*
X276689Y-286239D01*
X276968Y-286129D01*
X277215Y-286003D01*
X277429Y-285859D01*
X277610Y-285699D01*
Y-287542D01*
X279500D01*
Y-283724D01*
D02*
G37*
G36*
Y-288542D02*
X277610D01*
Y-290384D01*
X277429Y-290224D01*
X277215Y-290081D01*
X276968Y-289955D01*
X276689Y-289845D01*
X276378Y-289752D01*
X276033Y-289677D01*
X275968Y-289666D01*
X276203Y-290234D01*
X276900Y-291142D01*
X277808Y-291838D01*
X278865Y-292276D01*
X279500Y-292360D01*
Y-288542D01*
D02*
G37*
G36*
X284318D02*
X280500D01*
Y-292360D01*
X281135Y-292276D01*
X282192Y-291838D01*
X283100Y-291142D01*
X283797Y-290234D01*
X284235Y-289176D01*
X284318Y-288542D01*
D02*
G37*
G36*
X469000Y-288646D02*
X468295Y-288738D01*
X467638Y-289011D01*
X467074Y-289443D01*
X466642Y-290007D01*
X466369Y-290664D01*
X466277Y-291369D01*
X466369Y-292074D01*
X466642Y-292731D01*
X467074Y-293295D01*
X467638Y-293727D01*
X468295Y-294000D01*
X469000Y-294092D01*
X469705Y-294000D01*
X470362Y-293727D01*
X470926Y-293295D01*
X471358Y-292731D01*
X471630Y-292074D01*
X471723Y-291369D01*
X471630Y-290664D01*
X471358Y-290007D01*
X470926Y-289443D01*
X470362Y-289011D01*
X469705Y-288738D01*
X469000Y-288646D01*
D02*
G37*
G36*
X430000Y-296331D02*
X429295Y-296424D01*
X428638Y-296696D01*
X428074Y-297129D01*
X427642Y-297693D01*
X427369Y-298350D01*
X427277Y-299054D01*
X427369Y-299759D01*
X427642Y-300416D01*
X428074Y-300980D01*
X428638Y-301413D01*
X429295Y-301685D01*
X430000Y-301778D01*
X430705Y-301685D01*
X431362Y-301413D01*
X431926Y-300980D01*
X432358Y-300416D01*
X432630Y-299759D01*
X432723Y-299054D01*
X432630Y-298350D01*
X432358Y-297693D01*
X431926Y-297129D01*
X431362Y-296696D01*
X430705Y-296424D01*
X430000Y-296331D01*
D02*
G37*
G36*
X104340Y-307077D02*
X103635Y-307170D01*
X103438Y-307251D01*
X71402D01*
X71205Y-307170D01*
X70500Y-307077D01*
X69795Y-307170D01*
X69138Y-307442D01*
X68574Y-307874D01*
X68142Y-308438D01*
X67870Y-309095D01*
X67777Y-309800D01*
X67870Y-310505D01*
X68142Y-311162D01*
X68574Y-311726D01*
X69138Y-312158D01*
X69795Y-312431D01*
X70500Y-312523D01*
X71205Y-312431D01*
X71402Y-312349D01*
X103438D01*
X103635Y-312431D01*
X104340Y-312523D01*
X105044Y-312431D01*
X105701Y-312158D01*
X106265Y-311726D01*
X106698Y-311162D01*
X106970Y-310505D01*
X107063Y-309800D01*
X106970Y-309095D01*
X106698Y-308438D01*
X106265Y-307874D01*
X105701Y-307442D01*
X105044Y-307170D01*
X104340Y-307077D01*
D02*
G37*
G36*
X280000Y-293154D02*
X278735Y-293320D01*
X277556Y-293808D01*
X276543Y-294585D01*
X275767Y-295598D01*
X275278Y-296777D01*
X275112Y-298042D01*
X275278Y-299307D01*
X275767Y-300486D01*
X276543Y-301498D01*
X277556Y-302275D01*
X278735Y-302764D01*
X278933Y-302790D01*
Y-303294D01*
X278735Y-303320D01*
X277556Y-303808D01*
X276543Y-304585D01*
X275767Y-305598D01*
X275278Y-306777D01*
X275112Y-308042D01*
X275278Y-309307D01*
X275767Y-310486D01*
X276543Y-311498D01*
X277556Y-312275D01*
X278735Y-312764D01*
X280000Y-312930D01*
X281265Y-312764D01*
X282444Y-312275D01*
X283456Y-311498D01*
X284233Y-310486D01*
X284722Y-309307D01*
X284888Y-308042D01*
X284722Y-306777D01*
X284233Y-305598D01*
X283456Y-304585D01*
X282444Y-303808D01*
X281265Y-303320D01*
X281067Y-303294D01*
Y-302790D01*
X281265Y-302764D01*
X282444Y-302275D01*
X283456Y-301498D01*
X284233Y-300486D01*
X284722Y-299307D01*
X284888Y-298042D01*
X284722Y-296777D01*
X284233Y-295598D01*
X283456Y-294585D01*
X282444Y-293808D01*
X281265Y-293320D01*
X280000Y-293154D01*
D02*
G37*
G36*
X385595Y-295409D02*
X384812Y-295512D01*
X384082Y-295814D01*
X383455Y-296295D01*
X382974Y-296922D01*
X382672Y-297652D01*
X382569Y-298435D01*
Y-307152D01*
X382278Y-307443D01*
X363968D01*
X363185Y-307546D01*
X362456Y-307848D01*
X361829Y-308329D01*
X361348Y-308956D01*
X361046Y-309685D01*
X360943Y-310469D01*
X361046Y-311252D01*
X361348Y-311982D01*
X361829Y-312608D01*
X362456Y-313089D01*
X363185Y-313391D01*
X363968Y-313494D01*
X383531D01*
X384315Y-313391D01*
X385044Y-313089D01*
X385671Y-312608D01*
X387735Y-310545D01*
X388215Y-309918D01*
X388518Y-309188D01*
X388621Y-308405D01*
Y-298435D01*
X388518Y-297652D01*
X388215Y-296922D01*
X387735Y-296295D01*
X387108Y-295814D01*
X386378Y-295512D01*
X385595Y-295409D01*
D02*
G37*
G36*
X111692Y-325112D02*
X110427Y-325278D01*
X109248Y-325767D01*
X108236Y-326543D01*
X107459Y-327556D01*
X107039Y-328570D01*
X106539Y-328471D01*
Y-325153D01*
X96846D01*
Y-334846D01*
X106539D01*
Y-331529D01*
X107039Y-331430D01*
X107459Y-332444D01*
X108236Y-333456D01*
X109248Y-334233D01*
X110427Y-334722D01*
X111692Y-334888D01*
X112957Y-334722D01*
X114136Y-334233D01*
X115149Y-333456D01*
X115926Y-332444D01*
X116414Y-331265D01*
X116580Y-330000D01*
X116414Y-328735D01*
X115926Y-327556D01*
X115149Y-326543D01*
X114136Y-325767D01*
X112957Y-325278D01*
X111692Y-325112D01*
D02*
G37*
G36*
X318782Y-303827D02*
X318077Y-303920D01*
X317421Y-304191D01*
X316856Y-304624D01*
X316424Y-305188D01*
X316152Y-305845D01*
X316059Y-306550D01*
X316152Y-307255D01*
X316424Y-307912D01*
X316856Y-308476D01*
X317421Y-308908D01*
X318077Y-309180D01*
X318782Y-309273D01*
X319487Y-309180D01*
X320144Y-308908D01*
X320600Y-308558D01*
X320687Y-308504D01*
X320740Y-308454D01*
X320744Y-308451D01*
X320745Y-308450D01*
X320747Y-308449D01*
X320751Y-308448D01*
X320760Y-308444D01*
X320776Y-308440D01*
X320799Y-308436D01*
X321819D01*
X322164Y-308781D01*
Y-323879D01*
X322158Y-323969D01*
X322128Y-324144D01*
X322071Y-324338D01*
X321984Y-324555D01*
X321862Y-324795D01*
X321702Y-325056D01*
X321514Y-325318D01*
X320955Y-325961D01*
X320615Y-326296D01*
X320614Y-326298D01*
X320528Y-326364D01*
X319751Y-327376D01*
X319263Y-328555D01*
X319236Y-328754D01*
X318732D01*
X318706Y-328555D01*
X318218Y-327376D01*
X317441Y-326364D01*
X316428Y-325587D01*
X315249Y-325099D01*
X313984Y-324932D01*
X312719Y-325099D01*
X311540Y-325587D01*
X310528Y-326364D01*
X309751Y-327376D01*
X309263Y-328555D01*
X309237Y-328753D01*
X308732D01*
X308706Y-328555D01*
X308218Y-327376D01*
X307441Y-326364D01*
X306429Y-325587D01*
X305250Y-325099D01*
X303984Y-324932D01*
X302719Y-325099D01*
X301540Y-325587D01*
X300528Y-326364D01*
X299751Y-327376D01*
X299263Y-328555D01*
X299236Y-328754D01*
X298732D01*
X298706Y-328555D01*
X298218Y-327376D01*
X297441Y-326364D01*
X296428Y-325587D01*
X295250Y-325099D01*
X293984Y-324932D01*
X292719Y-325099D01*
X291540Y-325587D01*
X290528Y-326364D01*
X289751Y-327376D01*
X289263Y-328555D01*
X289096Y-329820D01*
X289263Y-331086D01*
X289751Y-332265D01*
X290528Y-333277D01*
X291540Y-334054D01*
X292719Y-334542D01*
X293984Y-334709D01*
X295250Y-334542D01*
X296428Y-334054D01*
X297441Y-333277D01*
X298218Y-332265D01*
X298706Y-331086D01*
X298732Y-330887D01*
X299236D01*
X299263Y-331086D01*
X299751Y-332265D01*
X300528Y-333277D01*
X301540Y-334054D01*
X302719Y-334542D01*
X303984Y-334709D01*
X305250Y-334542D01*
X306429Y-334054D01*
X307441Y-333277D01*
X308218Y-332265D01*
X308706Y-331086D01*
X308732Y-330888D01*
X309237D01*
X309263Y-331086D01*
X309751Y-332265D01*
X310528Y-333277D01*
X311540Y-334054D01*
X312719Y-334542D01*
X313984Y-334709D01*
X315249Y-334542D01*
X316428Y-334054D01*
X317441Y-333277D01*
X318218Y-332265D01*
X318706Y-331086D01*
X318732Y-330887D01*
X319236D01*
X319263Y-331086D01*
X319751Y-332265D01*
X320528Y-333277D01*
X321540Y-334054D01*
X322719Y-334542D01*
X323984Y-334709D01*
X325250Y-334542D01*
X326428Y-334054D01*
X327441Y-333277D01*
X328218Y-332265D01*
X328706Y-331086D01*
X328732Y-330887D01*
X329236D01*
X329263Y-331086D01*
X329751Y-332265D01*
X330528Y-333277D01*
X331540Y-334054D01*
X332719Y-334542D01*
X333984Y-334709D01*
X335249Y-334542D01*
X336428Y-334054D01*
X337441Y-333277D01*
X338218Y-332265D01*
X338706Y-331086D01*
X338732Y-330887D01*
X339236D01*
X339263Y-331086D01*
X339751Y-332265D01*
X340528Y-333277D01*
X341540Y-334054D01*
X342719Y-334542D01*
X343984Y-334709D01*
X345250Y-334542D01*
X346428Y-334054D01*
X347441Y-333277D01*
X348218Y-332265D01*
X348706Y-331086D01*
X348873Y-329820D01*
X348706Y-328555D01*
X348218Y-327376D01*
X347441Y-326364D01*
X346428Y-325587D01*
X345250Y-325099D01*
X343984Y-324932D01*
X342719Y-325099D01*
X341540Y-325587D01*
X340528Y-326364D01*
X339751Y-327376D01*
X339263Y-328555D01*
X339236Y-328754D01*
X338732D01*
X338706Y-328555D01*
X338218Y-327376D01*
X337441Y-326364D01*
X336428Y-325587D01*
X335249Y-325099D01*
X333984Y-324932D01*
X332719Y-325099D01*
X331540Y-325587D01*
X330528Y-326364D01*
X329751Y-327376D01*
X329263Y-328555D01*
X329236Y-328754D01*
X328732D01*
X328706Y-328555D01*
X328218Y-327376D01*
X327511Y-326456D01*
X327510Y-326454D01*
X327509Y-326453D01*
X327441Y-326364D01*
X327403Y-326335D01*
X326839Y-325708D01*
X326606Y-325405D01*
X326403Y-325108D01*
X326241Y-324832D01*
X326117Y-324580D01*
X326029Y-324354D01*
X325972Y-324153D01*
X325941Y-323978D01*
X325936Y-323893D01*
Y-308000D01*
X325793Y-307278D01*
X325384Y-306666D01*
X323934Y-305216D01*
X323322Y-304807D01*
X322600Y-304664D01*
X320799D01*
X320776Y-304660D01*
X320760Y-304656D01*
X320751Y-304652D01*
X320747Y-304651D01*
X320745Y-304650D01*
X320744Y-304649D01*
X320740Y-304646D01*
X320687Y-304596D01*
X320600Y-304542D01*
X320144Y-304191D01*
X319487Y-303920D01*
X318782Y-303827D01*
D02*
G37*
G36*
X246500Y-315277D02*
X245795Y-315370D01*
X245138Y-315642D01*
X244574Y-316074D01*
X244142Y-316638D01*
X243869Y-317295D01*
X243777Y-318000D01*
X243869Y-318705D01*
X244142Y-319362D01*
X244574Y-319926D01*
X245138Y-320358D01*
X245795Y-320631D01*
X246500Y-320723D01*
X247205Y-320631D01*
X247402Y-320549D01*
X248444D01*
X248451Y-320556D01*
Y-324541D01*
X248430Y-324756D01*
X248382Y-325035D01*
X248317Y-325293D01*
X248236Y-325531D01*
X248140Y-325751D01*
X248029Y-325958D01*
X247900Y-326153D01*
X247753Y-326339D01*
X247607Y-326495D01*
X247544Y-326543D01*
X246767Y-327556D01*
X246278Y-328735D01*
X246252Y-328933D01*
X245748D01*
X245722Y-328735D01*
X245233Y-327556D01*
X244457Y-326543D01*
X243444Y-325767D01*
X242265Y-325278D01*
X241000Y-325112D01*
X239735Y-325278D01*
X238556Y-325767D01*
X237544Y-326543D01*
X236767Y-327556D01*
X236278Y-328735D01*
X236112Y-330000D01*
X236278Y-331265D01*
X236767Y-332444D01*
X237544Y-333456D01*
X238556Y-334233D01*
X239735Y-334722D01*
X241000Y-334888D01*
X242265Y-334722D01*
X243444Y-334233D01*
X244457Y-333456D01*
X245233Y-332444D01*
X245722Y-331265D01*
X245748Y-331067D01*
X246252D01*
X246278Y-331265D01*
X246767Y-332444D01*
X247544Y-333456D01*
X248556Y-334233D01*
X249735Y-334722D01*
X251000Y-334888D01*
X252265Y-334722D01*
X253444Y-334233D01*
X254456Y-333456D01*
X255233Y-332444D01*
X255722Y-331265D01*
X255888Y-330000D01*
X255722Y-328735D01*
X255233Y-327556D01*
X254456Y-326543D01*
X254393Y-326495D01*
X254247Y-326339D01*
X254100Y-326153D01*
X253972Y-325958D01*
X253860Y-325752D01*
X253764Y-325531D01*
X253683Y-325293D01*
X253618Y-325035D01*
X253570Y-324756D01*
X253549Y-324541D01*
Y-319500D01*
X253355Y-318525D01*
X252802Y-317698D01*
X251302Y-316198D01*
X250476Y-315645D01*
X249500Y-315451D01*
X247402D01*
X247205Y-315370D01*
X246500Y-315277D01*
D02*
G37*
G36*
X185916Y-325112D02*
X184651Y-325278D01*
X183472Y-325767D01*
X182460Y-326543D01*
X181683Y-327556D01*
X181195Y-328735D01*
X181169Y-328933D01*
X180664D01*
X180638Y-328735D01*
X180150Y-327556D01*
X179373Y-326543D01*
X178361Y-325767D01*
X177182Y-325278D01*
X175917Y-325112D01*
X174651Y-325278D01*
X173472Y-325767D01*
X172460Y-326543D01*
X171683Y-327556D01*
X171195Y-328735D01*
X171028Y-330000D01*
X171195Y-331265D01*
X171683Y-332444D01*
X172460Y-333456D01*
X173472Y-334233D01*
X174651Y-334722D01*
X175917Y-334888D01*
X177182Y-334722D01*
X178361Y-334233D01*
X179373Y-333456D01*
X180150Y-332444D01*
X180638Y-331265D01*
X180664Y-331067D01*
X181169D01*
X181195Y-331265D01*
X181683Y-332444D01*
X182460Y-333456D01*
X183472Y-334233D01*
X184651Y-334722D01*
X185916Y-334888D01*
X187182Y-334722D01*
X188361Y-334233D01*
X189373Y-333456D01*
X190150Y-332444D01*
X190638Y-331265D01*
X190805Y-330000D01*
X190638Y-328735D01*
X190150Y-327556D01*
X189373Y-326543D01*
X188361Y-325767D01*
X187182Y-325278D01*
X185916Y-325112D01*
D02*
G37*
G36*
X284484Y-325502D02*
Y-329321D01*
X288302D01*
X288219Y-328686D01*
X287781Y-327628D01*
X287084Y-326721D01*
X286176Y-326024D01*
X285119Y-325586D01*
X284484Y-325502D01*
D02*
G37*
G36*
X283484D02*
X282850Y-325586D01*
X281792Y-326024D01*
X280884Y-326721D01*
X280188Y-327628D01*
X279750Y-328686D01*
X279666Y-329321D01*
X283484D01*
Y-325502D01*
D02*
G37*
G36*
X231500Y-325682D02*
Y-329500D01*
X235318D01*
X235235Y-328865D01*
X234797Y-327808D01*
X234100Y-326900D01*
X233192Y-326203D01*
X232135Y-325765D01*
X231500Y-325682D01*
D02*
G37*
G36*
X166417D02*
Y-329500D01*
X170235D01*
X170151Y-328865D01*
X169713Y-327808D01*
X169016Y-326900D01*
X168108Y-326203D01*
X167051Y-325765D01*
X166417Y-325682D01*
D02*
G37*
G36*
X230500D02*
X229865Y-325765D01*
X228808Y-326203D01*
X227900Y-326900D01*
X227203Y-327808D01*
X226765Y-328865D01*
X226682Y-329500D01*
X230500D01*
Y-325682D01*
D02*
G37*
G36*
X165417D02*
X164782Y-325765D01*
X163725Y-326203D01*
X162817Y-326900D01*
X162120Y-327808D01*
X161682Y-328865D01*
X161598Y-329500D01*
X165417D01*
Y-325682D01*
D02*
G37*
G36*
X122192D02*
Y-329500D01*
X126010D01*
X125927Y-328865D01*
X125489Y-327808D01*
X124792Y-326900D01*
X123884Y-326203D01*
X122827Y-325765D01*
X122192Y-325682D01*
D02*
G37*
G36*
X121192D02*
X120557Y-325765D01*
X119500Y-326203D01*
X118592Y-326900D01*
X117896Y-327808D01*
X117458Y-328865D01*
X117374Y-329500D01*
X121192D01*
Y-325682D01*
D02*
G37*
G36*
X288302Y-330321D02*
X284484D01*
Y-334139D01*
X285119Y-334055D01*
X286176Y-333617D01*
X287084Y-332920D01*
X287781Y-332013D01*
X288219Y-330955D01*
X288302Y-330321D01*
D02*
G37*
G36*
X283484D02*
X279666D01*
X279750Y-330955D01*
X280188Y-332013D01*
X280884Y-332920D01*
X281792Y-333617D01*
X282850Y-334055D01*
X283484Y-334139D01*
Y-330321D01*
D02*
G37*
G36*
X126010Y-330500D02*
X122192D01*
Y-334318D01*
X122827Y-334235D01*
X123884Y-333797D01*
X124792Y-333100D01*
X125489Y-332192D01*
X125927Y-331135D01*
X126010Y-330500D01*
D02*
G37*
G36*
X235318Y-330500D02*
X231500D01*
Y-334318D01*
X232135Y-334235D01*
X233192Y-333797D01*
X234100Y-333100D01*
X234797Y-332192D01*
X235235Y-331135D01*
X235318Y-330500D01*
D02*
G37*
G36*
X170235D02*
X166417D01*
Y-334318D01*
X167051Y-334235D01*
X168108Y-333797D01*
X169016Y-333100D01*
X169713Y-332192D01*
X170151Y-331135D01*
X170235Y-330500D01*
D02*
G37*
G36*
X230500D02*
X226682D01*
X226765Y-331135D01*
X227203Y-332192D01*
X227900Y-333100D01*
X228808Y-333797D01*
X229865Y-334235D01*
X230500Y-334318D01*
Y-330500D01*
D02*
G37*
G36*
X165417D02*
X161598D01*
X161682Y-331135D01*
X162120Y-332192D01*
X162817Y-333100D01*
X163725Y-333797D01*
X164782Y-334235D01*
X165417Y-334318D01*
Y-330500D01*
D02*
G37*
G36*
X121192Y-330500D02*
X117374D01*
X117458Y-331135D01*
X117896Y-332192D01*
X118592Y-333100D01*
X119500Y-333797D01*
X120557Y-334235D01*
X121192Y-334318D01*
Y-330500D01*
D02*
G37*
G36*
X160763Y-325153D02*
X151070D01*
Y-334846D01*
X160763D01*
Y-325153D01*
D02*
G37*
G36*
X104000Y-203471D02*
X94000D01*
X93415Y-203587D01*
X92919Y-203919D01*
X91919Y-204919D01*
X91587Y-205415D01*
X91471Y-206000D01*
Y-216150D01*
X91587Y-216735D01*
X91919Y-217231D01*
X92919Y-218231D01*
X93415Y-218563D01*
X94000Y-218679D01*
X104350D01*
X104936Y-218563D01*
X105432Y-218231D01*
X105563Y-218100D01*
X149935D01*
X151211Y-218129D01*
X151808Y-218178D01*
X151994Y-218204D01*
X152050Y-218215D01*
X152856Y-218833D01*
X154035Y-219322D01*
X155300Y-219488D01*
X156565Y-219322D01*
X157744Y-218833D01*
X158510Y-218246D01*
X158524Y-218243D01*
X160212Y-218132D01*
X160546Y-218130D01*
X161638D01*
X162770Y-219262D01*
Y-312200D01*
X162890Y-313114D01*
X163243Y-313965D01*
X163804Y-314696D01*
X169904Y-320796D01*
X170635Y-321357D01*
X171486Y-321710D01*
X172400Y-321830D01*
X194538D01*
X205204Y-332496D01*
X205935Y-333057D01*
X206786Y-333410D01*
X207700Y-333530D01*
X213659D01*
X214993Y-333580D01*
X215486Y-333634D01*
X215888Y-333707D01*
X216154Y-333779D01*
Y-334846D01*
X217578D01*
X217666Y-334864D01*
X217753Y-334846D01*
X225847D01*
Y-325153D01*
X217753D01*
X217666Y-325136D01*
X217578Y-325153D01*
X216154D01*
Y-326221D01*
X215888Y-326293D01*
X215506Y-326362D01*
X214348Y-326458D01*
X213699Y-326470D01*
X209162D01*
X198496Y-315804D01*
X197765Y-315243D01*
X196914Y-314890D01*
X196000Y-314770D01*
X173862D01*
X169830Y-310738D01*
Y-217800D01*
X169830Y-217800D01*
X169710Y-216886D01*
X169357Y-216035D01*
X168796Y-215304D01*
X168796Y-215304D01*
X165596Y-212104D01*
X164865Y-211543D01*
X164014Y-211190D01*
X163100Y-211070D01*
X160641D01*
X159364Y-211041D01*
X158766Y-210993D01*
X158577Y-210967D01*
X158510Y-210954D01*
X157744Y-210367D01*
X156565Y-209878D01*
X155300Y-209712D01*
X154035Y-209878D01*
X152856Y-210367D01*
X152129Y-210924D01*
X152104Y-210929D01*
X150413Y-211037D01*
X150080Y-211039D01*
X106529D01*
Y-206000D01*
X106413Y-205415D01*
X106081Y-204919D01*
X105081Y-203919D01*
X104585Y-203587D01*
X104000Y-203471D01*
D02*
G37*
G36*
X492126Y-322278D02*
X490481Y-322440D01*
X488900Y-322920D01*
X487442Y-323699D01*
X486165Y-324747D01*
X485116Y-326025D01*
X484337Y-327483D01*
X483858Y-329064D01*
X483696Y-330709D01*
X483858Y-332353D01*
X484337Y-333935D01*
X485116Y-335392D01*
X486165Y-336670D01*
X487442Y-337718D01*
X488900Y-338497D01*
X490481Y-338977D01*
X492126Y-339139D01*
X493771Y-338977D01*
X495352Y-338497D01*
X496810Y-337718D01*
X498087Y-336670D01*
X499136Y-335392D01*
X499915Y-333935D01*
X500394Y-332353D01*
X500556Y-330709D01*
X500394Y-329064D01*
X499915Y-327483D01*
X499136Y-326025D01*
X498087Y-324747D01*
X496810Y-323699D01*
X495352Y-322920D01*
X493771Y-322440D01*
X492126Y-322278D01*
D02*
G37*
G36*
X19685D02*
X18040Y-322440D01*
X16459Y-322920D01*
X15001Y-323699D01*
X13724Y-324747D01*
X12675Y-326025D01*
X11896Y-327483D01*
X11417Y-329064D01*
X11255Y-330709D01*
X11417Y-332353D01*
X11896Y-333935D01*
X12675Y-335392D01*
X13724Y-336670D01*
X15001Y-337718D01*
X16459Y-338497D01*
X18040Y-338977D01*
X19685Y-339139D01*
X21330Y-338977D01*
X22911Y-338497D01*
X24369Y-337718D01*
X25646Y-336670D01*
X26695Y-335392D01*
X27474Y-333935D01*
X27953Y-332353D01*
X28115Y-330709D01*
X27953Y-329064D01*
X27474Y-327483D01*
X26695Y-326025D01*
X25646Y-324747D01*
X24369Y-323699D01*
X22911Y-322920D01*
X21330Y-322440D01*
X19685Y-322278D01*
D02*
G37*
%LPD*%
G36*
X409016Y-112380D02*
X409064Y-112720D01*
X409144Y-113020D01*
X409256Y-113280D01*
X409400Y-113500D01*
X409576Y-113680D01*
X409784Y-113820D01*
X410024Y-113920D01*
X410296Y-113980D01*
X410600Y-114000D01*
Y-116000D01*
X410296Y-116020D01*
X410024Y-116080D01*
X409784Y-116180D01*
X409576Y-116320D01*
X409400Y-116500D01*
X409256Y-116720D01*
X409144Y-116980D01*
X409064Y-117280D01*
X409016Y-117620D01*
X409000Y-118000D01*
X407000Y-115000D01*
X409000Y-112000D01*
X409016Y-112380D01*
D02*
G37*
G36*
X250000Y-83500D02*
Y-96500D01*
X249500Y-97000D01*
X58000Y-97000D01*
Y-152000D01*
X59000Y-153000D01*
X265000D01*
X265500Y-153500D01*
Y-167500D01*
X265000Y-168000D01*
X49000D01*
X46000Y-165000D01*
X46000Y-95829D01*
X46000Y-82500D01*
X46000D01*
Y-82500D01*
X57000D01*
X57000Y-82500D01*
X249000Y-82500D01*
X250000Y-83500D01*
D02*
G37*
G36*
X495500Y-179640D02*
Y-183046D01*
X493887Y-184659D01*
X482659D01*
X482000Y-184000D01*
Y-178075D01*
X482283Y-177791D01*
X493652D01*
X495500Y-179640D01*
D02*
G37*
G36*
X500105Y-201660D02*
X496602Y-204409D01*
X495319Y-200125D01*
X495426Y-200161D01*
X495562Y-200153D01*
X495725Y-200103D01*
X495916Y-200010D01*
X496135Y-199874D01*
X496382Y-199695D01*
X496960Y-199208D01*
X497648Y-198549D01*
X500105Y-201660D01*
D02*
G37*
G36*
X277065Y-333178D02*
X276838Y-333248D01*
X276638Y-333365D01*
X276465Y-333528D01*
X276318Y-333737D01*
X276198Y-333994D01*
X276104Y-334296D01*
X276038Y-334646D01*
X275998Y-335042D01*
X275984Y-335484D01*
X271984D01*
X271971Y-335042D01*
X271931Y-334646D01*
X271864Y-334296D01*
X271771Y-333994D01*
X271651Y-333737D01*
X271504Y-333528D01*
X271330Y-333365D01*
X271130Y-333248D01*
X270903Y-333178D01*
X270650Y-333155D01*
X277319D01*
X277065Y-333178D01*
D02*
G37*
G36*
X205840Y-244064D02*
X205942Y-244145D01*
X206050Y-244216D01*
X206165Y-244278D01*
X206284Y-244331D01*
X206410Y-244374D01*
X206542Y-244407D01*
X206680Y-244431D01*
X206823Y-244445D01*
X206973Y-244450D01*
Y-245150D01*
X206823Y-245155D01*
X206680Y-245169D01*
X206542Y-245193D01*
X206410Y-245226D01*
X206284Y-245269D01*
X206165Y-245322D01*
X206050Y-245384D01*
X205942Y-245455D01*
X205840Y-245536D01*
X205744Y-245627D01*
Y-243973D01*
X205840Y-244064D01*
D02*
G37*
G36*
X201886Y-245665D02*
X201928Y-245797D01*
X201978Y-245925D01*
X202035Y-246051D01*
X202099Y-246172D01*
X202169Y-246290D01*
X202247Y-246404D01*
X202331Y-246515D01*
X202422Y-246622D01*
X202521Y-246726D01*
X202154Y-247349D01*
X202042Y-247245D01*
X201929Y-247154D01*
X201815Y-247078D01*
X201700Y-247016D01*
X201584Y-246968D01*
X201468Y-246935D01*
X201351Y-246916D01*
X201233Y-246911D01*
X201114Y-246920D01*
X200994Y-246944D01*
X201850Y-245529D01*
X201886Y-245665D01*
D02*
G37*
G36*
X234591Y-250489D02*
X234702Y-250581D01*
X234817Y-250661D01*
X234933Y-250731D01*
X235053Y-250789D01*
X235175Y-250837D01*
X235299Y-250874D01*
X235426Y-250900D01*
X235556Y-250915D01*
X235688Y-250919D01*
X234519Y-252088D01*
X234515Y-251956D01*
X234500Y-251826D01*
X234474Y-251699D01*
X234437Y-251575D01*
X234389Y-251453D01*
X234331Y-251333D01*
X234261Y-251217D01*
X234180Y-251102D01*
X234089Y-250991D01*
X233987Y-250882D01*
X234482Y-250387D01*
X234591Y-250489D01*
D02*
G37*
G36*
X224970Y-251681D02*
X224837Y-251685D01*
X224708Y-251700D01*
X224581Y-251726D01*
X224456Y-251763D01*
X224334Y-251811D01*
X224215Y-251869D01*
X224098Y-251939D01*
X223984Y-252020D01*
X223872Y-252111D01*
X223763Y-252213D01*
X223268Y-251718D01*
X223371Y-251609D01*
X223462Y-251498D01*
X223542Y-251383D01*
X223612Y-251267D01*
X223671Y-251147D01*
X223719Y-251025D01*
X223755Y-250901D01*
X223781Y-250774D01*
X223796Y-250644D01*
X223800Y-250512D01*
X224970Y-251681D01*
D02*
G37*
G36*
X230241Y-250839D02*
X230352Y-250931D01*
X230467Y-251011D01*
X230583Y-251081D01*
X230703Y-251139D01*
X230825Y-251187D01*
X230949Y-251224D01*
X231076Y-251250D01*
X231206Y-251265D01*
X231338Y-251269D01*
X230169Y-252438D01*
X230165Y-252306D01*
X230150Y-252176D01*
X230124Y-252049D01*
X230087Y-251925D01*
X230039Y-251803D01*
X229981Y-251683D01*
X229911Y-251567D01*
X229831Y-251452D01*
X229739Y-251341D01*
X229637Y-251232D01*
X230132Y-250737D01*
X230241Y-250839D01*
D02*
G37*
G36*
X224125Y-255197D02*
X224026Y-255104D01*
X223921Y-255020D01*
X223810Y-254947D01*
X223694Y-254883D01*
X223572Y-254829D01*
X223444Y-254785D01*
X223310Y-254751D01*
X223170Y-254727D01*
X223025Y-254712D01*
X222874Y-254707D01*
Y-254007D01*
X223025Y-254002D01*
X223170Y-253987D01*
X223310Y-253963D01*
X223444Y-253928D01*
X223572Y-253884D01*
X223694Y-253831D01*
X223810Y-253767D01*
X223921Y-253693D01*
X224026Y-253610D01*
X224125Y-253517D01*
Y-255197D01*
D02*
G37*
G36*
X178948Y-257027D02*
X179033Y-257116D01*
X179126Y-257194D01*
X179228Y-257262D01*
X179338Y-257319D01*
X179457Y-257366D01*
X179584Y-257403D01*
X179720Y-257429D01*
X179864Y-257445D01*
X180016Y-257450D01*
X179890Y-258150D01*
X179745Y-258154D01*
X179603Y-258166D01*
X179465Y-258187D01*
X179330Y-258215D01*
X179198Y-258252D01*
X179070Y-258297D01*
X178945Y-258350D01*
X178824Y-258411D01*
X178706Y-258480D01*
X178591Y-258558D01*
X178871Y-256928D01*
X178948Y-257027D01*
D02*
G37*
G36*
X186456Y-259753D02*
X186561Y-259836D01*
X186671Y-259910D01*
X186788Y-259974D01*
X186910Y-260028D01*
X187038Y-260072D01*
X187172Y-260106D01*
X187311Y-260130D01*
X187457Y-260145D01*
X187608Y-260150D01*
Y-260850D01*
X187457Y-260855D01*
X187311Y-260870D01*
X187172Y-260894D01*
X187038Y-260928D01*
X186910Y-260972D01*
X186788Y-261026D01*
X186671Y-261090D01*
X186561Y-261164D01*
X186456Y-261247D01*
X186357Y-261340D01*
Y-259660D01*
X186456Y-259753D01*
D02*
G37*
G36*
X29756Y-238725D02*
X29839Y-238782D01*
X29932Y-238833D01*
X30035Y-238878D01*
X30150Y-238915D01*
X30274Y-238946D01*
X30409Y-238969D01*
X30555Y-238986D01*
X30878Y-239000D01*
Y-240000D01*
X30711Y-240003D01*
X30409Y-240031D01*
X30274Y-240054D01*
X30150Y-240085D01*
X30035Y-240122D01*
X29932Y-240167D01*
X29839Y-240218D01*
X29756Y-240275D01*
X29684Y-240340D01*
Y-238660D01*
X29756Y-238725D01*
D02*
G37*
G36*
X82024Y-240294D02*
X82257Y-240488D01*
X82369Y-240567D01*
X82479Y-240633D01*
X82586Y-240687D01*
X82690Y-240729D01*
X82792Y-240759D01*
X82891Y-240776D01*
X82988Y-240782D01*
X81800Y-241970D01*
X81795Y-241873D01*
X81777Y-241774D01*
X81748Y-241672D01*
X81706Y-241568D01*
X81652Y-241460D01*
X81585Y-241351D01*
X81506Y-241238D01*
X81415Y-241123D01*
X81196Y-240885D01*
X81903Y-240178D01*
X82024Y-240294D01*
D02*
G37*
G36*
X281567Y-241666D02*
X281681Y-241758D01*
X281797Y-241839D01*
X281915Y-241910D01*
X282037Y-241969D01*
X282162Y-242017D01*
X282289Y-242055D01*
X282419Y-242081D01*
X282552Y-242096D01*
X282688Y-242100D01*
X281500Y-243288D01*
X281496Y-243152D01*
X281481Y-243019D01*
X281454Y-242889D01*
X281417Y-242762D01*
X281369Y-242637D01*
X281310Y-242515D01*
X281239Y-242397D01*
X281158Y-242281D01*
X281066Y-242167D01*
X280962Y-242057D01*
X281457Y-241562D01*
X281567Y-241666D01*
D02*
G37*
G36*
X276537Y-244225D02*
X276438Y-244132D01*
X276333Y-244049D01*
X276223Y-243975D01*
X276107Y-243911D01*
X275984Y-243857D01*
X275856Y-243813D01*
X275723Y-243779D01*
X275583Y-243755D01*
X275438Y-243740D01*
X275286Y-243735D01*
Y-243035D01*
X275438Y-243030D01*
X275583Y-243015D01*
X275723Y-242991D01*
X275856Y-242956D01*
X275984Y-242912D01*
X276107Y-242859D01*
X276223Y-242795D01*
X276333Y-242721D01*
X276438Y-242638D01*
X276537Y-242545D01*
Y-244225D01*
D02*
G37*
G36*
X246994Y-244006D02*
X247022Y-244138D01*
X247060Y-244267D01*
X247106Y-244392D01*
X247162Y-244515D01*
X247227Y-244634D01*
X247300Y-244750D01*
X247383Y-244864D01*
X247475Y-244973D01*
X247575Y-245080D01*
X247143Y-245638D01*
X247032Y-245534D01*
X246919Y-245443D01*
X246805Y-245365D01*
X246688Y-245299D01*
X246570Y-245246D01*
X246450Y-245206D01*
X246329Y-245178D01*
X246205Y-245163D01*
X246080Y-245161D01*
X245953Y-245171D01*
X246974Y-243870D01*
X246994Y-244006D01*
D02*
G37*
G36*
X243636Y-246840D02*
X243555Y-246942D01*
X243484Y-247050D01*
X243422Y-247165D01*
X243369Y-247285D01*
X243326Y-247410D01*
X243293Y-247542D01*
X243269Y-247680D01*
X243255Y-247824D01*
X243250Y-247973D01*
X242550D01*
X242545Y-247824D01*
X242531Y-247680D01*
X242507Y-247542D01*
X242474Y-247410D01*
X242431Y-247285D01*
X242378Y-247165D01*
X242316Y-247050D01*
X242245Y-246942D01*
X242164Y-246840D01*
X242073Y-246743D01*
X243727D01*
X243636Y-246840D01*
D02*
G37*
G36*
X246456Y-248253D02*
X246561Y-248336D01*
X246671Y-248410D01*
X246788Y-248474D01*
X246910Y-248528D01*
X247038Y-248572D01*
X247172Y-248606D01*
X247311Y-248630D01*
X247457Y-248645D01*
X247608Y-248650D01*
Y-249350D01*
X247457Y-249355D01*
X247311Y-249370D01*
X247172Y-249394D01*
X247038Y-249428D01*
X246910Y-249472D01*
X246788Y-249526D01*
X246671Y-249590D01*
X246561Y-249664D01*
X246456Y-249747D01*
X246357Y-249840D01*
Y-248160D01*
X246456Y-248253D01*
D02*
G37*
G36*
X220500Y-259000D02*
Y-265313D01*
X220000Y-265813D01*
X213313D01*
X212000Y-264500D01*
Y-259000D01*
X212500Y-258500D01*
X220000D01*
X220500Y-259000D01*
D02*
G37*
G36*
X263036Y-267440D02*
X262955Y-267542D01*
X262884Y-267650D01*
X262822Y-267764D01*
X262769Y-267884D01*
X262726Y-268010D01*
X262693Y-268142D01*
X262669Y-268280D01*
X262655Y-268424D01*
X262650Y-268573D01*
X261950D01*
X261945Y-268424D01*
X261931Y-268280D01*
X261907Y-268142D01*
X261874Y-268010D01*
X261831Y-267884D01*
X261778Y-267764D01*
X261716Y-267650D01*
X261645Y-267542D01*
X261564Y-267440D01*
X261473Y-267343D01*
X263127D01*
X263036Y-267440D01*
D02*
G37*
G36*
X259027Y-268549D02*
X258937Y-268658D01*
X258858Y-268772D01*
X258790Y-268890D01*
X258732Y-269013D01*
X258684Y-269139D01*
X258647Y-269270D01*
X258621Y-269405D01*
X258605Y-269544D01*
X258600Y-269687D01*
X258000D01*
X257995Y-269544D01*
X257979Y-269405D01*
X257953Y-269270D01*
X257916Y-269139D01*
X257868Y-269013D01*
X257810Y-268890D01*
X257742Y-268772D01*
X257663Y-268658D01*
X257573Y-268549D01*
X257473Y-268443D01*
X259127D01*
X259027Y-268549D01*
D02*
G37*
G36*
X355482Y-266641D02*
X355482Y-270926D01*
X354982Y-271426D01*
X349267D01*
X348982Y-271141D01*
Y-266641D01*
X349482Y-266141D01*
X354982D01*
X355482Y-266641D01*
D02*
G37*
G36*
X341250D02*
X341250Y-270926D01*
X340750Y-271426D01*
X335035D01*
X334750Y-271141D01*
Y-266641D01*
X335250Y-266141D01*
X340750D01*
X341250Y-266641D01*
D02*
G37*
G36*
X255027Y-270849D02*
X254937Y-270958D01*
X254858Y-271072D01*
X254790Y-271190D01*
X254732Y-271313D01*
X254684Y-271439D01*
X254647Y-271570D01*
X254621Y-271705D01*
X254605Y-271844D01*
X254600Y-271987D01*
X254000D01*
X253995Y-271844D01*
X253979Y-271705D01*
X253953Y-271570D01*
X253916Y-271439D01*
X253868Y-271313D01*
X253810Y-271190D01*
X253742Y-271072D01*
X253663Y-270958D01*
X253573Y-270849D01*
X253473Y-270743D01*
X255127D01*
X255027Y-270849D01*
D02*
G37*
G36*
X254600Y-274109D02*
X254605Y-274251D01*
X254620Y-274391D01*
X254646Y-274528D01*
X254681Y-274662D01*
X254727Y-274795D01*
X254783Y-274924D01*
X254849Y-275051D01*
X254925Y-275175D01*
X255012Y-275297D01*
X255108Y-275416D01*
X253434Y-275276D01*
X253542Y-275179D01*
X253638Y-275077D01*
X253723Y-274969D01*
X253796Y-274856D01*
X253859Y-274737D01*
X253909Y-274612D01*
X253949Y-274482D01*
X253977Y-274346D01*
X253994Y-274204D01*
X254000Y-274057D01*
X254600Y-274109D01*
D02*
G37*
G36*
X258600Y-274209D02*
X258605Y-274351D01*
X258620Y-274491D01*
X258646Y-274628D01*
X258681Y-274763D01*
X258727Y-274894D01*
X258783Y-275024D01*
X258849Y-275151D01*
X258925Y-275275D01*
X259012Y-275397D01*
X259108Y-275516D01*
X257434Y-275376D01*
X257542Y-275279D01*
X257638Y-275177D01*
X257723Y-275069D01*
X257796Y-274956D01*
X257859Y-274837D01*
X257909Y-274712D01*
X257949Y-274582D01*
X257977Y-274446D01*
X257994Y-274304D01*
X258000Y-274157D01*
X258600Y-274209D01*
D02*
G37*
G36*
X283353Y-275327D02*
X283443Y-275582D01*
X283594Y-275807D01*
X283804Y-276002D01*
X284075Y-276167D01*
X284407Y-276302D01*
X284798Y-276407D01*
X285250Y-276482D01*
X285762Y-276527D01*
X286334Y-276542D01*
Y-279542D01*
X285762Y-279557D01*
X285250Y-279602D01*
X284798Y-279677D01*
X284407Y-279782D01*
X284075Y-279917D01*
X283804Y-280082D01*
X283594Y-280277D01*
X283443Y-280502D01*
X283353Y-280757D01*
X283322Y-281042D01*
Y-275042D01*
X283353Y-275327D01*
D02*
G37*
G36*
X276678Y-281042D02*
X276647Y-280757D01*
X276557Y-280502D01*
X276407Y-280277D01*
X276196Y-280082D01*
X275924Y-279917D01*
X275593Y-279782D01*
X275202Y-279677D01*
X274750Y-279602D01*
X274238Y-279557D01*
X273665Y-279542D01*
Y-276542D01*
X274238Y-276527D01*
X274750Y-276482D01*
X275202Y-276407D01*
X275593Y-276302D01*
X275924Y-276167D01*
X276196Y-276002D01*
X276407Y-275807D01*
X276557Y-275582D01*
X276647Y-275327D01*
X276678Y-275042D01*
Y-281042D01*
D02*
G37*
G36*
X243550Y-283602D02*
X243539Y-283702D01*
X243522Y-284079D01*
X243500Y-286618D01*
X241500D01*
X241439Y-283560D01*
X243561D01*
X243550Y-283602D01*
D02*
G37*
G36*
X347635Y-280223D02*
X347551Y-280325D01*
X347478Y-280431D01*
X347414Y-280541D01*
X347360Y-280655D01*
X347316Y-280773D01*
X347282Y-280895D01*
X347257Y-281021D01*
X347243Y-281151D01*
X347238Y-281286D01*
X346538D01*
X346533Y-281151D01*
X346518Y-281021D01*
X346494Y-280895D01*
X346459Y-280773D01*
X346415Y-280655D01*
X346361Y-280541D01*
X346298Y-280431D01*
X346224Y-280325D01*
X346141Y-280223D01*
X346048Y-280125D01*
X347728D01*
X347635Y-280223D01*
D02*
G37*
G36*
X341956Y-281295D02*
X342061Y-281378D01*
X342171Y-281452D01*
X342288Y-281515D01*
X342410Y-281569D01*
X342538Y-281613D01*
X342672Y-281648D01*
X342811Y-281672D01*
X342957Y-281687D01*
X343108Y-281692D01*
Y-282392D01*
X342957Y-282397D01*
X342811Y-282411D01*
X342672Y-282436D01*
X342538Y-282470D01*
X342410Y-282514D01*
X342288Y-282568D01*
X342171Y-282632D01*
X342061Y-282705D01*
X341956Y-282789D01*
X341857Y-282882D01*
Y-281202D01*
X341956Y-281295D01*
D02*
G37*
G36*
X134565Y-271213D02*
X134509Y-271293D01*
X134460Y-271383D01*
X134418Y-271485D01*
X134382Y-271597D01*
X134352Y-271719D01*
X134329Y-271852D01*
X134313Y-271996D01*
X134300Y-272315D01*
X133300D01*
X133297Y-272150D01*
X133271Y-271852D01*
X133248Y-271719D01*
X133218Y-271597D01*
X133182Y-271485D01*
X133140Y-271383D01*
X133091Y-271293D01*
X133035Y-271213D01*
X132973Y-271144D01*
X134627D01*
X134565Y-271213D01*
D02*
G37*
G36*
X154156Y-279227D02*
X154060Y-279136D01*
X153958Y-279055D01*
X153850Y-278984D01*
X153735Y-278922D01*
X153615Y-278869D01*
X153490Y-278826D01*
X153358Y-278793D01*
X153220Y-278769D01*
X153077Y-278755D01*
X152927Y-278750D01*
Y-278050D01*
X153077Y-278045D01*
X153220Y-278031D01*
X153358Y-278007D01*
X153490Y-277974D01*
X153615Y-277931D01*
X153735Y-277878D01*
X153850Y-277816D01*
X153958Y-277745D01*
X154060Y-277664D01*
X154156Y-277573D01*
Y-279227D01*
D02*
G37*
G36*
X118113Y-296535D02*
X118193Y-296591D01*
X118283Y-296640D01*
X118385Y-296682D01*
X118497Y-296718D01*
X118619Y-296748D01*
X118752Y-296771D01*
X118896Y-296787D01*
X119215Y-296800D01*
Y-297800D01*
X119050Y-297803D01*
X118752Y-297829D01*
X118619Y-297852D01*
X118497Y-297882D01*
X118385Y-297918D01*
X118283Y-297960D01*
X118193Y-298009D01*
X118113Y-298065D01*
X118043Y-298127D01*
Y-296473D01*
X118113Y-296535D01*
D02*
G37*
G36*
X132062Y-324330D02*
X132122Y-324671D01*
X132221Y-325018D01*
X132361Y-325371D01*
X132540Y-325730D01*
X132759Y-326094D01*
X133019Y-326465D01*
X133317Y-326841D01*
X133656Y-327222D01*
X134035Y-327610D01*
X129350D01*
X129728Y-327222D01*
X130366Y-326465D01*
X130625Y-326094D01*
X130844Y-325730D01*
X131023Y-325371D01*
X131163Y-325018D01*
X131263Y-324671D01*
X131322Y-324330D01*
X131342Y-323995D01*
X132042D01*
X132062Y-324330D01*
D02*
G37*
G36*
X319738Y-305803D02*
X319843Y-305886D01*
X319953Y-305960D01*
X320070Y-306024D01*
X320192Y-306078D01*
X320320Y-306122D01*
X320454Y-306156D01*
X320593Y-306180D01*
X320739Y-306195D01*
X320890Y-306200D01*
Y-306900D01*
X320739Y-306905D01*
X320593Y-306920D01*
X320454Y-306944D01*
X320320Y-306978D01*
X320192Y-307023D01*
X320070Y-307076D01*
X319953Y-307140D01*
X319843Y-307214D01*
X319738Y-307297D01*
X319639Y-307390D01*
Y-305710D01*
X319738Y-305803D01*
D02*
G37*
G36*
X324400Y-323823D02*
X324420Y-324155D01*
X324479Y-324495D01*
X324578Y-324842D01*
X324716Y-325196D01*
X324893Y-325558D01*
X325110Y-325927D01*
X325367Y-326303D01*
X325663Y-326687D01*
X326373Y-327477D01*
X321689Y-327385D01*
X322071Y-327008D01*
X322715Y-326267D01*
X322976Y-325903D01*
X323197Y-325544D01*
X323378Y-325188D01*
X323519Y-324837D01*
X323620Y-324490D01*
X323680Y-324147D01*
X323700Y-323809D01*
X324400Y-323823D01*
D02*
G37*
G36*
X252013Y-324554D02*
X252054Y-324961D01*
X252121Y-325352D01*
X252215Y-325725D01*
X252336Y-326082D01*
X252483Y-326422D01*
X252658Y-326744D01*
X252859Y-327050D01*
X253087Y-327339D01*
X253343Y-327610D01*
X248657D01*
X248913Y-327339D01*
X249141Y-327050D01*
X249342Y-326744D01*
X249517Y-326422D01*
X249664Y-326082D01*
X249785Y-325725D01*
X249879Y-325352D01*
X249946Y-324961D01*
X249987Y-324554D01*
X250000Y-324129D01*
X252000D01*
X252013Y-324554D01*
D02*
G37*
G36*
X152889Y-216921D02*
X152798Y-216854D01*
X152662Y-216794D01*
X152479Y-216741D01*
X152251Y-216696D01*
X151977Y-216657D01*
X151291Y-216601D01*
X149917Y-216569D01*
X149963Y-212569D01*
X150467Y-212566D01*
X152297Y-212449D01*
X152525Y-212406D01*
X152706Y-212356D01*
X152842Y-212299D01*
X152932Y-212236D01*
X152889Y-216921D01*
D02*
G37*
G36*
X157780Y-212323D02*
X157916Y-212381D01*
X158098Y-212432D01*
X158326Y-212477D01*
X158600Y-212514D01*
X159286Y-212569D01*
X160660Y-212600D01*
Y-216600D01*
X160156Y-216603D01*
X158326Y-216723D01*
X158098Y-216768D01*
X157916Y-216819D01*
X157780Y-216878D01*
X157690Y-216943D01*
Y-212258D01*
X157780Y-212323D01*
D02*
G37*
G36*
X105000Y-206000D02*
Y-216500D01*
X104350Y-217150D01*
X94000D01*
X93000Y-216150D01*
Y-206000D01*
X94000Y-205000D01*
X104000D01*
X105000Y-206000D01*
D02*
G37*
G36*
X217666Y-333334D02*
X217626Y-333081D01*
X217506Y-332854D01*
X217305Y-332654D01*
X217026Y-332480D01*
X216666Y-332334D01*
X216226Y-332213D01*
X215705Y-332120D01*
X215106Y-332053D01*
X213666Y-332000D01*
Y-328000D01*
X214426Y-327987D01*
X215705Y-327880D01*
X216226Y-327786D01*
X216666Y-327666D01*
X217026Y-327520D01*
X217305Y-327346D01*
X217506Y-327146D01*
X217626Y-326919D01*
X217666Y-326665D01*
Y-333334D01*
D02*
G37*
D12*
X0Y0D02*
X512000D01*
X512000Y-346500D01*
X0D02*
X512000D01*
X0D02*
Y0D01*
D14*
X133800Y-294500D02*
Y-270300D01*
X131000Y-297300D02*
X133800Y-294500D01*
X117200Y-297300D02*
X131000D01*
X28828Y-239500D02*
X80518D01*
X83000Y-241982D01*
D19*
X254200Y-276200D02*
X254300Y-276100D01*
Y-269900D01*
X258300Y-276200D02*
Y-267600D01*
X258200Y-276300D02*
X258300Y-276200D01*
D108*
X246500Y-318000D02*
X249500D01*
X251000Y-319500D01*
Y-330000D02*
Y-319500D01*
X242500Y-289500D02*
Y-282500D01*
X320684Y-124000D02*
X333500D01*
X70500Y-309800D02*
X104340D01*
X320684Y-124000D02*
Y-112684D01*
X317754Y-109754D02*
X320684Y-112684D01*
X302500Y-109754D02*
X317754D01*
X408000Y-115000D02*
Y-112000D01*
Y-123000D02*
Y-115000D01*
X425000D01*
X405754Y-109754D02*
X408000Y-112000D01*
X386000Y-109754D02*
X405754D01*
X448500Y-180754D02*
X455500D01*
X362000Y-195500D02*
X385000D01*
X323965D02*
X333251D01*
X321000Y-192535D02*
X323965Y-195500D01*
X479000Y-109754D02*
X491500D01*
X434500Y-109796D02*
X465500D01*
X459106Y-194000D02*
Y-184360D01*
X455500Y-180754D02*
X459106Y-184360D01*
D109*
X96569Y-214569D02*
X155300D01*
X95500Y-213500D02*
Y-208536D01*
X207700Y-330000D02*
X221000D01*
X196000Y-318300D02*
X207700Y-330000D01*
X172400Y-318300D02*
X196000D01*
X166300Y-312200D02*
X172400Y-318300D01*
X166300Y-312200D02*
Y-217800D01*
X163100Y-214600D02*
X166300Y-217800D01*
X155300Y-214600D02*
X163100D01*
X279000Y-340500D02*
X473000D01*
X273984Y-335484D02*
X279000Y-340500D01*
X473000D02*
X476750Y-336750D01*
X484000Y-193283D02*
Y-180000D01*
X476750Y-200533D02*
X484000Y-193283D01*
X476750Y-336750D02*
Y-200533D01*
X95500Y-213500D02*
X96569Y-214569D01*
X273984Y-335484D02*
Y-329820D01*
D110*
X133600Y-231600D02*
X140600Y-224600D01*
X155300D01*
X337768Y-268691D02*
X352000D01*
X215000Y-262042D02*
X231747D01*
X236000Y-266295D01*
Y-279500D02*
Y-266295D01*
Y-279500D02*
X239000Y-282500D01*
X337768Y-274423D02*
Y-268691D01*
X334149Y-278042D02*
X337768Y-274423D01*
X280000Y-278042D02*
X334149D01*
X267500D02*
X268000Y-277542D01*
Y-251795D01*
X242500Y-282500D02*
X259877D01*
X239000D02*
X242500D01*
X267500Y-278042D02*
X280000D01*
X264335D02*
X267500D01*
X259877Y-282500D02*
X264335Y-278042D01*
X265954Y-288042D02*
X280000D01*
X264264Y-289732D02*
X265954Y-288042D01*
X385595Y-308405D02*
Y-298435D01*
X383531Y-310469D02*
X385595Y-308405D01*
X363968Y-310469D02*
X383531D01*
D111*
X137200Y-278400D02*
X155000D01*
X135500Y-280100D02*
X137200Y-278400D01*
X135500Y-298200D02*
Y-280100D01*
X131692Y-302008D02*
X135500Y-298200D01*
X131692Y-330000D02*
Y-302008D01*
X244500Y-279300D02*
X258720D01*
X242900Y-277700D02*
X244500Y-279300D01*
X242900Y-277700D02*
Y-245900D01*
X245800Y-244000D02*
X246000D01*
X249100Y-247100D01*
X245500Y-249000D02*
X260000D01*
X228400Y-244800D02*
X235700Y-252100D01*
X204900Y-244800D02*
X228400D01*
X227000Y-248100D02*
X231350Y-252450D01*
X203400Y-248100D02*
X227000D01*
X201100Y-245800D02*
X203400Y-248100D01*
X200700Y-245800D02*
X201100D01*
X178100Y-257800D02*
X204200D01*
X177900Y-257600D02*
X178100Y-257800D01*
X204200D02*
X209200Y-252800D01*
X222682D01*
X224982Y-250500D01*
X258720Y-279300D02*
X262300Y-275721D01*
Y-266500D01*
X258700Y-247100D02*
X264665Y-241135D01*
X249100Y-247100D02*
X258700D01*
X280535Y-241135D02*
X282700Y-243300D01*
X264665Y-241135D02*
X280535D01*
X260000Y-249000D02*
X265615Y-243385D01*
X277394D01*
X210393Y-254357D02*
X224982D01*
X204250Y-260500D02*
X210393Y-254357D01*
X185500Y-260500D02*
X204250D01*
X324050Y-329755D02*
Y-308000D01*
X318782Y-306550D02*
X322600D01*
X324050Y-308000D01*
X323984Y-329820D02*
X324050Y-329755D01*
X346888Y-281286D02*
Y-279268D01*
X346131Y-282042D02*
X346888Y-281286D01*
X341000Y-282042D02*
X346131D01*
D115*
X133600Y-231600D02*
D03*
X155917Y-330000D02*
D03*
X493576Y-302982D02*
D03*
X280000Y-278042D02*
D03*
X221000Y-330000D02*
D03*
X101692D02*
D03*
D116*
X133600Y-241600D02*
D03*
X165917Y-330000D02*
D03*
X175917D02*
D03*
X185916D02*
D03*
X155300Y-234600D02*
D03*
Y-224600D02*
D03*
Y-214600D02*
D03*
X343984Y-329820D02*
D03*
X333984Y-329820D02*
D03*
X323984D02*
D03*
X313984D02*
D03*
X303984D02*
D03*
X293984D02*
D03*
X283984D02*
D03*
X493576Y-292982D02*
D03*
Y-282982D02*
D03*
Y-272982D02*
D03*
X493576Y-262982D02*
D03*
Y-252982D02*
D03*
X493576Y-242982D02*
D03*
Y-232982D02*
D03*
Y-222982D02*
D03*
X493576Y-212982D02*
D03*
X493576Y-202982D02*
D03*
X280000Y-308042D02*
D03*
Y-298042D02*
D03*
Y-288042D02*
D03*
X231000Y-330000D02*
D03*
X241000D02*
D03*
X251000D02*
D03*
X111692D02*
D03*
X121692D02*
D03*
X131692D02*
D03*
X413500Y-20500D02*
D03*
X403500D02*
D03*
X393500D02*
D03*
X383500D02*
D03*
X373500D02*
D03*
X363500D02*
D03*
X353500D02*
D03*
X343500D02*
D03*
X333500D02*
D03*
X192500Y-20500D02*
D03*
X182500D02*
D03*
X172500D02*
D03*
X162500D02*
D03*
X152500D02*
D03*
X142500D02*
D03*
X132500D02*
D03*
X122500D02*
D03*
X112500D02*
D03*
X19244Y-48179D02*
D03*
X19244Y-58179D02*
D03*
X19244Y-68179D02*
D03*
D117*
X10240Y-87500D02*
D03*
X30240D02*
D03*
D118*
X148119Y-183150D02*
D03*
X336511Y-190500D02*
D03*
X227000Y-117500D02*
D03*
X280000Y-122000D02*
D03*
X193150Y-183150D02*
D03*
X182343Y-117450D02*
D03*
X137843Y-117500D02*
D03*
X104119Y-183150D02*
D03*
X93500Y-117450D02*
D03*
X71250Y-188769D02*
D03*
X42500Y-112150D02*
D03*
X328000Y-128500D02*
D03*
X369175Y-123000D02*
D03*
X456331Y-119539D02*
D03*
X468056Y-190000D02*
D03*
X424303Y-190464D02*
D03*
X377286Y-191000D02*
D03*
X249000Y-188769D02*
D03*
X287757Y-190464D02*
D03*
X245500Y-249000D02*
D03*
X254200Y-276200D02*
D03*
X258200Y-276300D02*
D03*
X282700Y-243300D02*
D03*
X449700Y-236300D02*
D03*
X222395Y-229032D02*
D03*
X222425Y-238026D02*
D03*
Y-233500D02*
D03*
X246500Y-318000D02*
D03*
X216627Y-299234D02*
D03*
X242500Y-289500D02*
D03*
X411000Y-222354D02*
D03*
X429500Y-215542D02*
D03*
X430000Y-236054D02*
D03*
Y-257054D02*
D03*
Y-278054D02*
D03*
Y-299054D02*
D03*
X469000Y-291369D02*
D03*
Y-270369D02*
D03*
Y-249369D02*
D03*
X468941Y-228742D02*
D03*
X469000Y-207369D02*
D03*
X277394Y-243385D02*
D03*
X147843Y-175850D02*
D03*
X62000Y-116500D02*
D03*
X414000Y-122500D02*
D03*
X333500Y-124000D02*
D03*
X359187Y-181500D02*
D03*
X375675Y-140500D02*
D03*
X416831Y-141000D02*
D03*
X461314Y-138000D02*
D03*
X492667Y-74900D02*
D03*
X447500Y-72500D02*
D03*
X401500Y-79500D02*
D03*
X360091Y-64500D02*
D03*
X315000Y-65500D02*
D03*
X303205Y-30414D02*
D03*
X255000Y-58000D02*
D03*
X71625Y-41500D02*
D03*
X79000Y-42526D02*
D03*
X95778Y-41500D02*
D03*
X143765Y-43500D02*
D03*
X121619Y-59500D02*
D03*
X165956Y-60500D02*
D03*
X209842Y-53500D02*
D03*
X225387Y-42000D02*
D03*
X333760Y-256500D02*
D03*
X327500D02*
D03*
X321540D02*
D03*
X316257Y-256380D02*
D03*
X352000Y-268691D02*
D03*
X318500Y-300000D02*
D03*
X291000Y-262000D02*
D03*
X296300Y-261971D02*
D03*
X276837Y-263484D02*
D03*
X365890Y-267227D02*
D03*
Y-262982D02*
D03*
X365808Y-258213D02*
D03*
X354968Y-234669D02*
D03*
X348613Y-234569D02*
D03*
X342000D02*
D03*
X309000Y-234500D02*
D03*
X315636D02*
D03*
X322272Y-234411D02*
D03*
X328907Y-234500D02*
D03*
X335543D02*
D03*
X20907Y-303263D02*
D03*
X8093D02*
D03*
X23827Y-239750D02*
D03*
X25419Y-230118D02*
D03*
X98000Y-211250D02*
D03*
X95500Y-213500D02*
D03*
X58500Y-307443D02*
D03*
X55000D02*
D03*
X51315D02*
D03*
X47860D02*
D03*
X58500Y-302763D02*
D03*
X55000D02*
D03*
X51315D02*
D03*
X47713D02*
D03*
X58500Y-298042D02*
D03*
X55000D02*
D03*
X51315Y-298000D02*
D03*
X47713D02*
D03*
X365890Y-249454D02*
D03*
X365808Y-253542D02*
D03*
X241261Y-224500D02*
D03*
X245836D02*
D03*
X83000Y-241982D02*
D03*
X70500Y-309800D02*
D03*
X104340D02*
D03*
X52500Y-142000D02*
D03*
Y-137000D02*
D03*
Y-128000D02*
D03*
Y-133000D02*
D03*
Y-123500D02*
D03*
X49000Y-121500D02*
D03*
Y-125900D02*
D03*
Y-130300D02*
D03*
Y-134700D02*
D03*
Y-139100D02*
D03*
Y-143500D02*
D03*
X95500Y-208536D02*
D03*
X23828Y-273618D02*
D03*
X28828Y-239500D02*
D03*
X185500Y-260500D02*
D03*
X224982Y-254357D02*
D03*
X213313Y-259500D02*
D03*
X213500Y-264000D02*
D03*
X488500Y-180494D02*
D03*
X371632Y-190882D02*
D03*
X404127Y-191612D02*
D03*
X489886Y-183000D02*
D03*
X493114Y-182000D02*
D03*
X268000Y-251795D02*
D03*
X257000Y-287000D02*
D03*
X275000Y-252000D02*
D03*
X302500Y-109754D02*
D03*
X320684Y-124000D02*
D03*
X328500Y-119000D02*
D03*
X448500Y-180754D02*
D03*
X431500Y-190464D02*
D03*
X385000Y-195500D02*
D03*
X362000D02*
D03*
X333251D02*
D03*
X321000Y-192535D02*
D03*
X343811Y-190000D02*
D03*
X408000Y-123000D02*
D03*
X394000Y-214500D02*
D03*
X491500Y-109754D02*
D03*
X425000Y-115000D02*
D03*
X479000Y-109754D02*
D03*
X465500Y-109796D02*
D03*
X434500D02*
D03*
X439000Y-159500D02*
D03*
X424472Y-84500D02*
D03*
Y-95000D02*
D03*
Y-91500D02*
D03*
Y-88000D02*
D03*
X482654Y-159000D02*
D03*
Y-162500D02*
D03*
Y-166000D02*
D03*
X439000Y-155850D02*
D03*
Y-162882D02*
D03*
Y-166000D02*
D03*
X395582Y-155500D02*
D03*
Y-165500D02*
D03*
X351709Y-155500D02*
D03*
Y-166500D02*
D03*
Y-162500D02*
D03*
Y-159000D02*
D03*
X395582Y-162167D02*
D03*
Y-158833D02*
D03*
X482654Y-155500D02*
D03*
X459106Y-194000D02*
D03*
X386000Y-109754D02*
D03*
X387685Y-190464D02*
D03*
X299706D02*
D03*
X284335Y-119506D02*
D03*
X372839Y-118964D02*
D03*
X416839Y-119000D02*
D03*
X460839Y-119500D02*
D03*
X475520Y-189480D02*
D03*
X467972Y-88000D02*
D03*
Y-91500D02*
D03*
X335709D02*
D03*
X380472Y-88000D02*
D03*
Y-91500D02*
D03*
X307567Y-159000D02*
D03*
Y-162500D02*
D03*
X292196Y-88042D02*
D03*
Y-91542D02*
D03*
X335709Y-88000D02*
D03*
X318421Y-295998D02*
D03*
Y-291477D02*
D03*
Y-286560D02*
D03*
X283984Y-25346D02*
D03*
X278500Y-25500D02*
D03*
X273500Y-25346D02*
D03*
X268814D02*
D03*
X283984Y-19070D02*
D03*
X278500Y-19000D02*
D03*
X273500D02*
D03*
X268814D02*
D03*
X318782Y-306550D02*
D03*
X255500Y-156000D02*
D03*
Y-163500D02*
D03*
Y-159500D02*
D03*
X255000Y-187000D02*
D03*
X211000Y-156000D02*
D03*
Y-163500D02*
D03*
Y-159500D02*
D03*
X210500Y-187000D02*
D03*
X195343Y-85042D02*
D03*
Y-92542D02*
D03*
Y-88542D02*
D03*
X194843Y-116042D02*
D03*
X166461Y-156000D02*
D03*
Y-163500D02*
D03*
Y-159500D02*
D03*
X165961Y-187000D02*
D03*
X150842Y-85000D02*
D03*
Y-92500D02*
D03*
Y-88500D02*
D03*
X150343Y-116000D02*
D03*
X122119Y-163500D02*
D03*
Y-159500D02*
D03*
X121619Y-187000D02*
D03*
X106500Y-85000D02*
D03*
Y-92500D02*
D03*
Y-88500D02*
D03*
X106000Y-116000D02*
D03*
X77500Y-156000D02*
D03*
Y-163500D02*
D03*
Y-159500D02*
D03*
X77000Y-187000D02*
D03*
X62000Y-92500D02*
D03*
Y-88500D02*
D03*
X240000Y-85000D02*
D03*
Y-88500D02*
D03*
Y-92500D02*
D03*
X239500Y-116000D02*
D03*
X122119Y-156000D02*
D03*
X226170Y-237988D02*
D03*
Y-233500D02*
D03*
Y-228974D02*
D03*
X242400Y-230000D02*
D03*
X238496Y-230037D02*
D03*
X234765Y-229873D02*
D03*
X230575Y-228895D02*
D03*
X242469Y-238075D02*
D03*
X242500Y-233500D02*
D03*
X238451Y-238075D02*
D03*
X234500D02*
D03*
X230614D02*
D03*
X238451Y-233500D02*
D03*
X234581D02*
D03*
X230575D02*
D03*
X332531Y-281550D02*
D03*
X385595Y-298435D02*
D03*
X376595Y-297500D02*
D03*
X354500Y-316500D02*
D03*
X363968Y-310469D02*
D03*
X336000Y-317000D02*
D03*
X262390Y-230142D02*
D03*
X264264Y-289732D02*
D03*
X250390Y-289860D02*
D03*
X346888Y-279268D02*
D03*
X341000Y-282042D02*
D03*
X337768Y-268691D02*
D03*
X291905Y-95042D02*
D03*
Y-84542D02*
D03*
X307567Y-166000D02*
D03*
Y-155500D02*
D03*
X335709Y-95000D02*
D03*
Y-84500D02*
D03*
X380472Y-95000D02*
D03*
Y-84500D02*
D03*
X467972Y-95000D02*
D03*
Y-84500D02*
D03*
X62000Y-85000D02*
D03*
X38827Y-273523D02*
D03*
X33827Y-273523D02*
D03*
X28828Y-273618D02*
D03*
X437717Y-203542D02*
D03*
X432908Y-226942D02*
D03*
X437717Y-245327D02*
D03*
Y-266163D02*
D03*
X437717Y-287163D02*
D03*
X398417Y-295042D02*
D03*
Y-274042D02*
D03*
Y-253542D02*
D03*
X398417Y-232042D02*
D03*
X203000Y-214500D02*
D03*
X410479Y-242813D02*
D03*
X449479Y-256127D02*
D03*
X410479Y-263813D02*
D03*
X449479Y-277127D02*
D03*
X410479Y-284813D02*
D03*
X449479Y-298127D02*
D03*
X410479Y-305813D02*
D03*
X449479Y-214127D02*
D03*
D119*
X155300Y-244600D02*
D03*
X273984Y-329820D02*
D03*
X423500Y-20500D02*
D03*
X202500Y-20500D02*
D03*
X19244Y-38179D02*
D03*
D120*
X19685Y-15748D02*
D03*
Y-330709D02*
D03*
X492126D02*
D03*
Y-15748D02*
D03*
D121*
X22300Y-96600D02*
D03*
X37500D02*
D03*
X33400D02*
D03*
X4000Y-187100D02*
D03*
Y-182600D02*
D03*
Y-178500D02*
D03*
X3600Y-159700D02*
D03*
X419100Y-330800D02*
D03*
Y-325800D02*
D03*
X419000Y-321000D02*
D03*
X205100Y-338500D02*
D03*
X199900Y-338400D02*
D03*
X216700Y-294688D02*
D03*
X216656Y-290700D02*
D03*
X232200Y-302700D02*
D03*
X241261Y-310800D02*
D03*
X199700Y-312275D02*
D03*
X196600Y-302800D02*
D03*
X160000Y-307000D02*
D03*
X156600Y-303100D02*
D03*
X159800Y-284640D02*
D03*
X156500Y-287800D02*
D03*
X139000Y-261750D02*
D03*
X157200Y-266394D02*
D03*
X172300Y-260100D02*
D03*
X104340Y-288039D02*
D03*
X140900Y-270300D02*
D03*
X155000Y-278400D02*
D03*
X133800Y-270300D02*
D03*
X117200Y-297300D02*
D03*
X190900Y-291900D02*
D03*
X191000Y-299800D02*
D03*
X242900Y-245900D02*
D03*
X245800Y-244000D02*
D03*
X248200Y-251903D02*
D03*
X235700Y-252100D02*
D03*
X231350Y-252450D02*
D03*
X204900Y-244800D02*
D03*
X197317Y-248739D02*
D03*
X200700Y-245800D02*
D03*
X177900Y-257600D02*
D03*
X224982Y-250500D02*
D03*
X258300Y-267600D02*
D03*
X254300Y-269900D02*
D03*
X262300Y-266500D02*
D03*
D122*
X500000Y-77000D02*
Y-48861D01*
X461139Y-10000D02*
X500000Y-48861D01*
X254500Y-10000D02*
X461139D01*
X500000Y-77000D02*
X500000Y-198982D01*
X248000Y-16500D02*
X254500Y-10000D01*
X496000Y-202982D02*
X500000Y-198982D01*
X248000Y-89000D02*
Y-16500D01*
M02*
